<svg id="svg" version="1.1" xmlns="http://www.w3.org/2000/svg" xmlns:xlink="http://www.w3.org/1999/xlink" width="400" height="414.76014760147604" viewBox="0, 0, 400,414.76014760147604"><g id="svgg"><path id="path0" d="M63.168 21.767 C 57.808 23.676,54.113 26.967,51.727 31.958 L 50.272 35.000 50.083 42.530 L 49.894 50.060 48.921 50.430 C 48.386 50.634,43.762 50.800,38.645 50.800 C 25.741 50.800,23.451 51.658,20.495 57.600 L 19.400 59.800 19.400 90.000 L 19.400 120.200 20.346 122.400 C 20.890 123.663,22.082 125.362,23.146 126.389 L 25.000 128.178 25.211 211.789 C 25.412 291.197,25.459 295.501,26.147 297.400 C 29.237 305.928,35.544 311.595,43.200 312.722 C 45.274 313.028,73.598 313.247,134.932 313.434 C 210.620 313.664,223.697 313.786,223.881 314.266 C 224.013 314.611,222.563 316.405,220.123 318.914 C 217.234 321.885,215.853 323.655,215.060 325.400 C 214.460 326.720,213.805 328.070,213.604 328.400 C 213.403 328.730,212.410 330.710,211.396 332.800 C 210.383 334.890,209.396 336.870,209.202 337.200 C 209.009 337.530,208.378 338.790,207.800 340.000 C 207.222 341.210,206.581 342.470,206.374 342.800 C 206.167 343.130,205.819 343.850,205.599 344.400 C 205.380 344.950,205.020 345.670,204.799 346.000 C 204.579 346.330,204.219 347.050,203.999 347.600 C 203.780 348.150,203.429 348.870,203.220 349.200 C 202.733 349.968,201.365 352.705,200.822 354.000 C 200.591 354.550,200.221 355.270,200.001 355.600 C 199.780 355.930,199.420 356.650,199.201 357.200 C 198.981 357.750,198.642 358.470,198.446 358.800 C 198.250 359.130,197.608 360.390,197.019 361.600 C 196.431 362.810,195.781 364.070,195.575 364.400 C 195.368 364.730,195.020 365.450,194.801 366.000 C 194.581 366.550,194.242 367.270,194.046 367.600 C 193.850 367.930,193.208 369.190,192.619 370.400 C 192.031 371.610,191.381 372.870,191.175 373.200 C 190.968 373.530,190.620 374.250,190.401 374.800 C 190.181 375.350,189.846 376.070,189.655 376.400 C 183.404 387.220,185.255 395.078,194.026 394.959 C 195.976 394.933,231.398 378.129,241.600 372.391 C 241.930 372.205,243.910 371.213,246.000 370.185 C 248.090 369.157,250.070 368.154,250.400 367.957 C 250.730 367.760,251.450 367.419,252.000 367.199 C 252.550 366.980,253.270 366.632,253.600 366.425 C 253.930 366.219,255.161 365.551,256.336 364.942 C 259.720 363.185,304.949 317.930,305.647 315.602 C 306.921 311.349,302.829 307.429,298.949 309.186 C 297.914 309.655,290.538 316.739,276.710 330.544 C 264.782 342.453,255.717 351.200,255.303 351.200 C 254.139 351.200,246.265 343.056,246.552 342.150 C 246.805 341.355,351.195 236.800,351.736 236.800 C 352.750 236.800,361.200 244.806,361.200 245.767 C 361.200 245.996,350.767 256.627,338.015 269.392 C 311.580 295.852,313.196 294.076,313.213 296.663 C 313.229 299.016,314.028 300.103,316.564 301.225 L 318.383 302.030 320.291 301.200 C 322.466 300.255,392.225 230.860,394.146 227.730 C 397.603 222.101,397.609 215.872,394.163 210.400 C 393.678 209.630,388.178 203.941,381.941 197.758 C 368.524 184.459,368.363 184.351,361.945 184.313 C 354.726 184.270,355.471 183.747,337.734 201.344 C 329.038 209.972,322.282 216.374,322.034 216.221 C 321.726 216.031,321.600 203.210,321.600 172.066 L 321.600 128.180 323.412 126.475 C 324.450 125.499,325.645 123.816,326.212 122.536 L 327.200 120.300 327.200 90.304 C 327.200 55.977,327.375 57.826,323.786 54.222 C 320.678 51.101,319.262 50.800,307.661 50.800 C 295.793 50.800,296.953 51.665,296.660 42.600 C 296.425 35.337,295.705 31.945,294.048 30.288 C 293.802 30.042,293.600 29.650,293.600 29.419 C 293.600 29.187,292.727 28.072,291.659 26.941 C 282.171 16.889,266.803 19.597,260.680 32.400 C 259.644 34.566,259.200 38.047,259.200 44.011 C 259.200 48.797,259.109 49.558,258.469 50.138 C 257.507 51.009,228.394 51.162,227.689 50.300 C 227.463 50.024,227.205 46.840,227.114 43.200 C 226.865 33.292,223.871 26.658,218.423 23.943 C 217.860 23.662,217.156 23.253,216.858 23.033 C 214.077 20.979,207.181 20.276,203.102 21.631 C 199.998 22.662,200.101 22.617,198.367 23.703 C 191.819 27.803,189.200 33.657,189.200 44.195 C 189.200 48.052,189.048 49.992,188.720 50.320 C 188.364 50.676,184.405 50.800,173.382 50.800 C 155.409 50.800,157.200 51.578,157.200 43.768 C 157.200 40.609,156.964 37.075,156.655 35.600 C 153.629 21.153,135.478 15.926,125.152 26.527 C 123.163 28.569,121.202 31.516,121.198 32.471 C 121.196 32.762,120.896 33.540,120.531 34.200 C 120.003 35.153,119.831 36.880,119.691 42.600 C 119.594 46.606,119.336 50.022,119.109 50.300 C 118.453 51.105,89.284 51.014,88.126 50.203 C 87.317 49.637,87.266 49.216,87.112 41.903 C 86.956 34.462,86.913 34.121,85.838 31.882 C 81.737 23.342,71.532 18.789,63.168 21.767 M71.547 32.181 C 73.540 32.884,74.844 34.070,75.961 36.194 C 77.300 38.739,77.244 63.001,75.893 65.362 C 72.467 71.353,64.286 71.092,61.318 64.898 C 60.118 62.395,60.238 38.473,61.461 36.200 C 63.544 32.330,67.501 30.754,71.547 32.181 M141.334 32.240 C 142.653 32.689,143.656 33.421,144.706 34.702 L 146.200 36.525 146.320 50.095 C 146.457 65.596,146.358 66.158,143.105 68.310 C 138.276 71.506,132.056 69.005,130.589 63.279 C 129.747 59.995,129.917 39.563,130.806 37.071 C 132.314 32.846,136.916 30.734,141.334 32.240 M210.614 32.045 C 213.088 32.668,215.359 35.183,215.954 37.961 C 216.556 40.765,216.544 60.351,215.939 63.363 C 214.191 72.068,201.978 71.718,200.351 62.916 C 199.796 59.915,200.077 37.793,200.688 36.365 C 202.175 32.890,206.497 31.009,210.614 32.045 M280.440 32.069 C 282.585 32.809,284.004 34.048,285.041 36.087 C 286.384 38.729,286.547 61.858,285.243 64.899 C 282.730 70.762,274.202 71.279,270.961 65.765 L 270.000 64.130 270.000 50.525 L 270.000 36.920 271.133 35.360 C 273.536 32.053,276.922 30.855,280.440 32.069 M49.440 62.106 C 49.607 62.274,49.883 63.562,50.052 64.970 C 51.815 79.610,71.108 85.943,81.758 75.377 C 85.485 71.679,86.931 69.002,87.390 64.949 C 87.784 61.470,87.133 61.600,104.139 61.600 C 120.038 61.600,119.600 61.531,119.600 64.044 C 119.600 64.861,119.992 66.580,120.472 67.864 C 127.302 86.153,152.347 84.601,157.016 65.600 C 157.421 63.950,157.920 62.375,158.125 62.100 C 158.653 61.392,188.013 61.373,188.720 62.080 C 188.984 62.344,189.202 63.019,189.205 63.580 C 189.248 72.123,198.814 80.790,208.200 80.790 C 217.535 80.790,227.200 72.143,227.200 63.790 C 227.200 61.449,226.953 61.478,243.470 61.856 L 258.550 62.200 259.238 65.349 C 260.238 69.921,262.393 73.599,265.636 76.266 C 266.386 76.883,267.090 77.494,267.200 77.625 C 268.350 78.992,274.373 80.826,277.770 80.844 C 287.113 80.893,295.910 73.370,296.766 64.600 L 297.000 62.200 306.150 62.092 C 312.563 62.017,315.464 62.121,315.850 62.441 C 316.603 63.066,316.670 93.170,315.920 93.920 C 315.411 94.429,32.355 94.665,31.033 94.157 C 30.012 93.766,30.078 62.633,31.100 62.020 C 31.907 61.537,48.951 61.616,49.440 62.106 M315.986 106.374 C 316.715 107.737,316.515 117.210,315.738 118.069 C 315.102 118.771,312.542 118.800,250.238 118.802 C 207.715 118.804,184.898 118.944,183.942 119.209 C 180.673 120.117,179.333 124.254,181.420 126.991 C 183.567 129.806,178.353 129.600,247.480 129.600 C 295.449 129.600,309.951 129.711,310.320 130.080 C 310.961 130.721,311.021 226.155,310.381 227.874 C 310.150 228.493,306.155 232.817,301.501 237.483 C 292.126 246.883,292.000 246.951,292.000 242.618 C 292.000 235.779,288.335 230.282,282.524 228.405 C 278.975 227.258,255.132 227.187,251.600 228.313 C 247.708 229.553,245.030 231.892,243.254 235.600 L 242.200 237.800 242.200 254.600 L 242.200 271.400 243.333 273.552 C 245.621 277.897,249.310 280.485,254.486 281.375 C 255.303 281.516,256.091 281.824,256.238 282.061 C 256.562 282.585,237.455 301.798,236.017 302.392 C 234.161 303.161,43.865 302.752,42.942 301.977 C 42.534 301.635,41.729 301.155,41.154 300.911 C 39.355 300.147,37.158 297.035,36.343 294.098 C 35.156 289.814,35.185 130.650,36.374 130.014 C 36.897 129.734,57.155 129.600,99.085 129.600 C 167.247 129.600,161.334 129.812,164.100 127.264 C 166.647 124.917,165.178 120.226,161.573 119.192 C 160.705 118.943,136.713 118.800,95.903 118.800 C 32.133 118.800,31.593 118.793,30.800 118.000 C 29.696 116.896,29.585 107.522,30.662 106.331 C 31.732 105.150,315.353 105.192,315.986 106.374 M66.200 150.753 C 57.819 153.801,56.794 156.658,56.814 176.920 C 56.833 196.386,57.392 198.373,63.946 202.292 L 65.800 203.400 81.600 203.400 L 97.400 203.400 99.182 202.321 C 101.715 200.788,103.846 198.601,105.110 196.239 L 106.200 194.200 106.200 177.000 L 106.200 159.800 105.086 157.686 C 103.788 155.221,101.478 152.856,99.089 151.547 C 97.359 150.597,68.540 149.902,66.200 150.753 M127.800 150.732 C 123.878 152.058,120.461 155.637,119.264 159.676 C 117.218 166.578,118.172 194.374,120.564 197.550 C 121.795 199.184,124.447 201.550,126.023 202.419 L 127.800 203.400 143.400 203.400 L 159.000 203.400 160.710 202.454 C 163.320 201.011,165.885 198.283,166.997 195.768 L 168.000 193.500 168.000 177.000 L 168.000 160.500 167.026 158.298 C 165.941 155.845,163.427 153.037,161.000 151.568 L 159.400 150.600 144.000 150.531 C 135.530 150.493,128.240 150.584,127.800 150.732 M190.000 150.648 C 186.067 151.979,182.728 154.998,181.304 158.511 C 180.703 159.992,180.604 162.227,180.501 176.631 L 180.383 193.062 181.389 195.338 C 182.591 198.054,184.987 200.762,187.540 202.288 L 189.400 203.400 205.000 203.400 L 220.600 203.400 222.655 202.316 C 229.315 198.803,230.000 196.442,230.000 177.000 C 230.000 157.642,229.289 155.164,222.696 151.550 C 221.064 150.655,192.322 149.862,190.000 150.648 M249.765 151.491 C 246.258 153.403,244.532 155.259,242.984 158.787 C 241.695 161.725,241.783 192.940,243.088 195.630 C 244.294 198.116,246.823 200.906,249.108 202.270 L 251.000 203.400 266.800 203.400 C 284.319 203.400,283.056 203.573,286.932 200.641 C 291.432 197.237,291.800 195.465,291.800 177.200 C 291.800 157.486,291.263 155.574,284.600 151.563 L 283.000 150.600 267.400 150.491 L 251.800 150.381 249.765 151.491 M94.742 162.000 C 96.072 163.600,96.062 190.457,94.730 191.874 L 93.861 192.800 81.662 192.800 C 70.872 192.800,69.379 192.724,68.731 192.138 C 67.965 191.444,67.565 163.261,68.306 162.166 C 69.161 160.903,70.270 160.801,82.055 160.900 L 93.911 161.000 94.742 162.000 M156.414 162.000 C 157.501 163.416,157.627 190.177,156.554 191.814 L 155.908 192.800 143.377 192.800 C 130.881 192.800,130.844 192.797,130.223 191.911 C 129.455 190.815,129.275 163.755,130.026 162.351 C 130.774 160.955,131.967 160.831,143.923 160.917 L 155.647 161.000 156.414 162.000 M218.171 161.800 C 218.955 162.839,219.105 190.093,218.336 191.781 L 217.872 192.800 205.232 192.800 L 192.592 192.800 191.996 191.900 C 191.162 190.641,190.887 165.413,191.680 163.008 C 192.391 160.854,192.439 160.847,205.883 160.929 C 217.054 160.997,217.593 161.035,218.171 161.800 M279.771 161.829 C 280.748 162.806,280.717 190.986,279.738 192.069 C 278.594 193.332,255.044 193.178,253.977 191.900 C 252.905 190.615,252.787 163.803,253.846 162.186 L 254.492 161.200 266.817 161.200 C 277.489 161.200,279.227 161.284,279.771 161.829 M364.640 195.942 C 365.498 196.570,370.426 201.340,375.591 206.541 C 388.725 219.768,388.606 218.383,377.559 229.441 C 373.296 233.709,369.543 237.200,369.219 237.200 C 368.304 237.200,343.600 212.355,343.600 211.435 C 343.600 210.608,355.761 198.023,358.560 195.954 C 360.638 194.417,362.551 194.413,364.640 195.942 M339.760 223.789 C 342.092 226.092,344.000 228.243,344.000 228.568 C 344.000 229.229,239.093 334.132,238.244 334.319 C 237.785 334.421,231.798 328.823,229.448 326.095 L 228.695 325.221 281.448 272.448 C 310.461 243.423,334.497 219.658,334.860 219.638 C 335.224 219.617,337.429 221.485,339.760 223.789 M127.696 228.422 C 119.622 231.208,118.398 234.657,118.405 254.599 C 118.412 274.436,119.434 277.312,127.600 280.497 C 132.535 282.422,159.453 281.331,162.270 279.092 C 164.328 277.457,166.197 275.178,167.036 273.280 L 168.000 271.100 167.986 254.450 C 167.974 238.829,167.925 237.701,167.200 236.200 C 166.775 235.320,166.421 234.375,166.414 234.100 C 166.406 233.825,166.250 233.600,166.068 233.600 C 165.885 233.600,165.514 233.195,165.243 232.700 C 164.463 231.273,161.528 229.268,158.960 228.409 C 155.533 227.263,131.027 227.273,127.696 228.422 M59.800 230.378 C 58.602 230.869,57.728 232.022,57.266 233.723 C 56.496 236.555,57.225 237.620,65.771 246.145 C 70.077 250.442,73.600 254.181,73.600 254.456 C 73.600 254.730,70.135 258.430,65.900 262.677 C 57.357 271.245,56.453 272.550,57.242 275.181 C 57.980 277.647,59.450 278.802,61.918 278.858 C 64.634 278.919,64.607 278.939,73.559 270.020 C 77.766 265.829,81.408 262.400,81.653 262.400 C 81.898 262.400,85.528 265.837,89.721 270.038 C 98.194 278.528,98.525 278.800,100.445 278.868 C 104.649 279.015,106.341 277.080,106.058 272.448 C 106.018 271.786,103.509 268.979,97.800 263.210 C 93.290 258.652,89.600 254.728,89.600 254.489 C 89.600 254.251,93.290 250.339,97.800 245.795 C 104.084 239.465,106.014 237.285,106.058 236.467 C 106.308 231.887,104.950 230.200,101.014 230.200 L 98.443 230.200 90.416 238.200 C 86.000 242.600,82.102 246.262,81.754 246.337 C 81.362 246.422,78.114 243.494,73.260 238.683 C 64.037 229.541,63.163 229.002,59.800 230.378 M182.933 230.572 C 181.559 231.566,180.400 233.764,180.400 235.375 C 180.400 236.765,180.916 237.381,188.800 245.391 C 193.420 250.085,197.200 254.148,197.200 254.421 C 197.200 254.694,193.718 258.446,189.462 262.759 C 185.206 267.071,181.426 271.045,181.062 271.589 C 179.489 273.939,181.126 277.991,183.925 278.677 C 187.305 279.505,187.817 279.175,196.343 270.657 C 202.314 264.692,204.445 262.800,205.195 262.800 C 205.949 262.800,208.033 264.677,214.012 270.743 C 222.543 279.397,222.796 279.561,226.313 278.712 C 229.229 278.008,230.939 273.988,229.342 271.589 C 228.979 271.045,225.199 267.080,220.942 262.777 C 216.684 258.475,213.200 254.713,213.200 254.418 C 213.200 254.124,216.682 250.354,220.938 246.041 C 231.112 235.732,231.263 235.463,228.804 232.069 C 225.680 227.756,223.558 228.651,213.803 238.397 C 208.761 243.435,205.474 246.428,205.078 246.340 C 204.730 246.263,200.813 242.610,196.375 238.222 L 188.306 230.244 186.053 230.095 C 184.450 229.988,183.550 230.126,182.933 230.572 M156.577 239.689 C 157.628 241.190,157.500 267.941,156.435 269.256 L 155.670 270.200 143.255 270.200 C 133.607 270.200,130.724 270.084,130.320 269.680 C 129.656 269.017,129.339 241.539,129.976 239.864 L 130.380 238.800 143.167 238.800 C 155.928 238.800,155.956 238.802,156.577 239.689 M279.626 239.214 C 280.356 239.605,280.400 240.140,280.400 248.709 L 280.400 257.791 274.305 263.895 L 268.210 270.000 261.314 270.000 C 254.492 270.000,254.412 269.990,253.794 269.047 C 252.927 267.724,253.070 240.520,253.949 239.461 C 254.607 238.669,278.185 238.442,279.626 239.214 M223.326 335.665 C 224.662 336.375,245.200 357.105,245.200 357.743 C 245.200 358.834,231.699 366.000,229.642 366.000 C 228.412 366.000,214.400 352.278,214.400 351.074 C 214.400 350.416,221.298 336.036,221.905 335.429 C 222.218 335.115,222.327 335.133,223.326 335.665 " stroke="none" fill="#090a0a" fill-rule="evenodd"></path><path id="path1" d="M81.983 26.500 C 82.964 27.545,83.819 28.400,83.883 28.400 C 84.184 28.400,83.866 28.041,82.100 26.383 L 80.200 24.600 81.983 26.500 M65.818 32.236 C 63.864 32.951,62.582 34.118,61.461 36.200 C 60.238 38.473,60.118 62.395,61.318 64.898 C 64.286 71.092,72.467 71.353,75.893 65.362 C 77.244 63.001,77.300 38.739,75.961 36.194 C 73.893 32.263,69.948 30.723,65.818 32.236 M135.910 32.079 C 131.162 33.341,130.299 35.958,130.102 49.681 C 129.862 66.499,131.437 70.009,139.005 69.527 C 145.844 69.092,146.473 67.420,146.320 50.095 L 146.200 36.525 144.706 34.702 C 142.498 32.010,139.516 31.120,135.910 32.079 M205.504 32.131 C 203.805 32.664,201.347 34.824,200.688 36.365 C 200.077 37.793,199.796 59.915,200.351 62.916 C 201.978 71.718,214.191 72.068,215.939 63.363 C 216.544 60.351,216.556 40.765,215.954 37.961 C 214.936 33.211,210.302 30.626,205.504 32.131 M275.156 32.142 C 273.397 32.700,272.605 33.334,271.133 35.360 L 270.000 36.920 270.000 50.525 L 270.000 64.130 270.961 65.765 C 274.202 71.279,282.730 70.762,285.243 64.899 C 286.547 61.858,286.384 38.729,285.041 36.087 C 283.147 32.362,279.301 30.827,275.156 32.142 M73.327 33.834 C 76.198 36.223,76.370 37.173,76.386 50.713 C 76.404 66.633,75.389 69.000,68.537 69.000 C 61.950 69.000,60.844 66.415,60.819 50.946 C 60.798 38.218,61.063 36.553,63.480 34.264 C 65.817 32.051,70.917 31.828,73.327 33.834 M140.863 32.759 C 142.415 33.120,143.763 34.234,145.028 36.200 C 145.751 37.324,145.800 38.244,145.800 50.800 L 145.800 64.200 144.811 65.611 C 140.889 71.208,132.601 69.958,131.229 63.563 C 130.644 60.834,130.663 40.122,131.253 37.677 C 131.781 35.487,133.992 32.923,135.561 32.681 C 137.460 32.387,139.383 32.415,140.863 32.759 M213.428 34.564 C 215.590 36.853,215.723 38.038,215.536 53.250 L 215.400 64.300 214.385 65.725 C 211.260 70.115,205.035 70.376,201.936 66.247 C 200.998 64.997,200.229 41.483,200.991 37.336 C 201.255 35.897,203.979 32.953,205.322 32.655 C 208.451 31.959,211.687 32.721,213.428 34.564 M282.915 34.327 C 285.209 36.620,285.569 38.831,285.586 50.721 C 285.604 63.151,285.213 65.280,282.505 67.499 C 278.976 70.391,274.041 69.519,271.407 65.538 L 270.400 64.017 270.412 50.709 C 270.426 36.024,270.456 35.844,273.226 33.665 C 275.680 31.735,280.663 32.075,282.915 34.327 M296.501 37.800 C 296.505 38.680,296.587 38.993,296.683 38.495 C 296.779 37.998,296.775 37.278,296.675 36.895 C 296.575 36.513,296.496 36.920,296.501 37.800 M87.289 43.251 C 87.210 48.793,87.279 49.564,87.900 50.051 C 88.517 50.535,88.542 50.526,88.111 49.972 C 87.787 49.556,87.580 47.256,87.500 43.172 L 87.378 37.000 87.289 43.251 M157.360 43.800 C 157.361 47.100,157.422 48.397,157.498 46.682 C 157.573 44.967,157.572 42.267,157.497 40.682 C 157.421 39.097,157.359 40.500,157.360 43.800 M258.958 44.200 C 258.958 47.280,259.021 48.487,259.097 46.882 C 259.173 45.278,259.173 42.758,259.096 41.282 C 259.019 39.807,258.957 41.120,258.958 44.200 M34.500 50.699 C 37.085 50.768,41.315 50.768,43.900 50.699 C 46.485 50.629,44.370 50.572,39.200 50.572 C 34.030 50.572,31.915 50.629,34.500 50.699 M96.326 50.700 C 100.576 50.764,107.416 50.764,111.526 50.699 C 115.637 50.634,112.160 50.581,103.800 50.581 C 95.440 50.582,92.077 50.635,96.326 50.700 M165.926 50.700 C 170.176 50.764,177.016 50.764,181.126 50.699 C 185.237 50.634,181.760 50.581,173.400 50.581 C 165.040 50.582,161.677 50.635,165.926 50.700 M235.526 50.700 C 239.776 50.764,246.616 50.764,250.726 50.699 C 254.837 50.634,251.360 50.581,243.000 50.581 C 234.640 50.582,231.277 50.635,235.526 50.700 M302.723 50.699 C 305.431 50.768,309.751 50.768,312.323 50.699 C 314.895 50.629,312.680 50.572,307.400 50.573 C 302.120 50.573,300.015 50.630,302.723 50.699 M19.293 61.200 C 19.293 61.970,19.375 62.285,19.476 61.900 C 19.576 61.515,19.576 60.885,19.476 60.500 C 19.375 60.115,19.293 60.430,19.293 61.200 M327.390 90.200 C 327.390 106.480,327.439 113.082,327.500 104.870 C 327.560 96.659,327.560 83.339,327.500 75.270 C 327.439 67.202,327.390 73.920,327.390 90.200 M31.100 62.020 C 30.078 62.633,30.012 93.766,31.033 94.157 C 32.355 94.665,315.411 94.429,315.920 93.920 C 316.670 93.170,316.603 63.066,315.850 62.441 C 315.464 62.121,312.563 62.017,306.150 62.092 L 297.000 62.200 296.766 64.600 C 295.910 73.370,287.113 80.893,277.770 80.844 C 274.373 80.826,268.350 78.992,267.200 77.625 C 267.090 77.494,266.386 76.883,265.636 76.266 C 262.393 73.599,260.238 69.921,259.238 65.349 L 258.550 62.200 243.470 61.856 C 226.953 61.478,227.200 61.449,227.200 63.790 C 227.200 72.143,217.535 80.790,208.200 80.790 C 198.814 80.790,189.248 72.123,189.205 63.580 C 189.202 63.019,188.984 62.344,188.720 62.080 C 188.013 61.373,158.653 61.392,158.125 62.100 C 157.920 62.375,157.421 63.950,157.016 65.600 C 152.347 84.601,127.302 86.153,120.472 67.864 C 119.992 66.580,119.600 64.861,119.600 64.044 C 119.600 61.531,120.038 61.600,104.139 61.600 C 87.133 61.600,87.784 61.470,87.390 64.949 C 86.607 71.862,80.930 78.042,73.394 80.186 C 63.218 83.080,51.297 75.309,50.052 64.970 C 49.883 63.562,49.607 62.274,49.440 62.106 C 48.951 61.616,31.907 61.537,31.100 62.020 M19.301 119.000 C 19.305 119.880,19.387 120.193,19.483 119.695 C 19.579 119.198,19.575 118.478,19.475 118.095 C 19.375 117.713,19.296 118.120,19.301 119.000 M35.785 130.500 C 35.680 130.775,35.641 167.270,35.697 211.600 L 35.800 292.200 36.000 211.100 C 36.110 166.495,36.149 130.000,36.087 130.000 C 36.026 130.000,35.889 130.225,35.785 130.500 M75.724 150.299 C 78.983 150.367,84.203 150.366,87.324 150.299 C 90.446 150.231,87.780 150.176,81.400 150.177 C 75.020 150.177,72.466 150.232,75.724 150.299 M137.724 150.299 C 140.983 150.367,146.203 150.366,149.324 150.299 C 152.446 150.231,149.780 150.176,143.400 150.177 C 137.020 150.177,134.466 150.232,137.724 150.299 M199.500 150.299 C 202.635 150.367,207.765 150.367,210.900 150.299 C 214.035 150.232,211.470 150.176,205.200 150.176 C 198.930 150.176,196.365 150.232,199.500 150.299 M168.181 177.000 C 168.181 185.360,168.234 188.837,168.299 184.726 C 168.364 180.616,168.364 173.776,168.300 169.526 C 168.235 165.277,168.182 168.640,168.181 177.000 M180.179 177.000 C 180.179 184.260,180.233 187.286,180.299 183.725 C 180.365 180.164,180.366 174.224,180.299 170.525 C 180.233 166.826,180.179 169.740,180.179 177.000 M372.000 187.703 C 372.000 187.759,376.905 192.664,382.900 198.603 L 393.800 209.400 383.003 198.500 C 372.969 188.371,372.000 187.420,372.000 187.703 M358.560 195.954 C 355.761 198.023,343.600 210.608,343.600 211.435 C 343.600 212.355,368.304 237.200,369.219 237.200 C 369.543 237.200,373.296 233.709,377.559 229.441 C 388.606 218.383,388.725 219.768,375.591 206.541 C 362.884 193.744,362.158 193.293,358.560 195.954 M328.985 209.700 L 327.000 211.800 329.100 209.815 C 331.051 207.971,331.383 207.600,331.085 207.600 C 331.022 207.600,330.077 208.545,328.985 209.700 M325.375 213.300 L 324.200 214.600 325.500 213.425 C 326.215 212.779,326.800 212.194,326.800 212.125 C 326.800 211.816,326.470 212.088,325.375 213.300 M281.448 272.448 L 228.695 325.221 229.448 326.095 C 231.798 328.823,237.785 334.421,238.244 334.319 C 239.093 334.132,344.000 229.229,344.000 228.568 C 344.000 227.737,335.664 219.592,334.860 219.638 C 334.497 219.658,310.461 243.423,281.448 272.448 M339.492 224.092 C 341.563 226.154,343.200 228.118,343.200 228.541 C 343.200 229.129,243.526 329.272,238.896 333.336 C 238.031 334.095,232.835 329.820,230.305 326.266 L 229.485 325.116 281.842 272.758 C 316.175 238.424,334.472 220.400,334.992 220.400 C 335.458 220.400,337.315 221.924,339.492 224.092 M299.105 289.100 C 270.332 317.865,246.683 341.737,246.552 342.150 C 246.265 343.056,254.139 351.200,255.303 351.200 C 255.717 351.200,264.782 342.453,276.710 330.544 C 300.582 306.711,300.109 307.065,304.100 310.012 C 305.604 311.122,305.496 310.320,303.969 309.036 C 302.345 307.669,299.711 307.610,297.914 308.900 C 297.224 309.395,287.523 318.919,276.357 330.066 C 265.190 341.212,255.744 350.392,255.365 350.466 C 254.838 350.568,246.800 343.221,246.800 342.637 C 246.800 342.022,351.814 237.820,352.367 237.886 C 353.885 238.065,360.421 245.214,359.921 246.148 C 359.673 246.610,348.995 257.461,336.192 270.261 C 310.952 295.493,311.832 294.460,312.647 297.907 C 312.914 299.038,314.278 300.800,314.886 300.800 C 315.076 300.800,314.775 300.307,314.216 299.704 C 312.891 298.274,312.790 295.261,314.015 293.663 C 314.463 293.078,325.263 282.156,338.015 269.392 C 350.767 256.627,361.200 245.996,361.200 245.767 C 361.200 244.806,352.750 236.800,351.736 236.800 C 351.561 236.800,327.878 260.335,299.105 289.100 M188.800 245.800 C 192.866 249.870,196.282 253.200,196.392 253.200 C 196.502 253.200,193.266 249.870,189.200 245.800 C 185.134 241.730,181.718 238.400,181.608 238.400 C 181.498 238.400,184.734 241.730,188.800 245.800 M168.181 254.400 C 168.181 262.650,168.234 266.025,168.299 261.900 C 168.364 257.775,168.364 251.025,168.299 246.900 C 168.234 242.775,168.181 246.150,168.181 254.400 M222.394 244.700 L 217.400 249.800 222.500 244.806 C 225.305 242.059,227.600 239.764,227.600 239.706 C 227.600 239.419,227.033 239.963,222.394 244.700 M215.381 251.700 L 213.800 253.400 215.500 251.819 C 216.435 250.949,217.200 250.184,217.200 250.119 C 217.200 249.816,216.852 250.119,215.381 251.700 M198.994 268.100 L 193.800 273.400 199.100 268.206 C 202.015 265.349,204.400 262.964,204.400 262.906 C 204.400 262.619,203.819 263.177,198.994 268.100 M209.000 266.000 C 210.750 267.760,212.271 269.200,212.381 269.200 C 212.491 269.200,211.150 267.760,209.400 266.000 C 207.650 264.240,206.129 262.800,206.019 262.800 C 205.909 262.800,207.250 264.240,209.000 266.000 M192.175 274.900 L 191.000 276.200 192.300 275.025 C 193.512 273.930,193.784 273.600,193.475 273.600 C 193.406 273.600,192.821 274.185,192.175 274.900 M136.925 281.499 C 140.624 281.566,146.564 281.565,150.125 281.499 C 153.686 281.433,150.660 281.379,143.400 281.379 C 136.140 281.379,133.226 281.433,136.925 281.499 M246.197 292.500 L 236.600 302.200 246.300 292.603 C 255.314 283.685,256.180 282.800,255.897 282.800 C 255.840 282.800,251.475 287.165,246.197 292.500 M93.732 302.700 C 119.875 302.757,162.535 302.757,188.532 302.700 C 214.529 302.643,193.140 302.597,141.000 302.597 C 88.860 302.597,67.589 302.643,93.732 302.700 M67.100 313.500 C 79.255 313.559,99.145 313.559,111.300 313.500 C 123.455 313.441,113.510 313.393,89.200 313.393 C 64.890 313.393,54.945 313.441,67.100 313.500 M223.190 313.863 C 224.031 314.281,223.513 315.074,220.100 318.592 L 216.600 322.200 220.309 318.600 C 223.773 315.238,224.528 314.014,223.290 313.763 C 223.010 313.706,222.965 313.752,223.190 313.863 M221.905 335.429 C 221.298 336.036,214.400 350.416,214.400 351.074 C 214.400 352.278,228.412 366.000,229.642 366.000 C 230.592 366.000,243.262 359.910,244.569 358.825 C 245.744 357.851,245.212 357.195,234.700 346.656 C 224.083 336.012,222.612 334.721,221.905 335.429 M234.160 346.819 C 242.718 355.468,244.774 357.749,244.411 358.187 C 243.867 358.842,230.427 365.600,229.668 365.600 C 228.968 365.600,215.619 352.449,215.182 351.330 C 214.719 350.144,221.718 336.000,222.768 336.000 C 223.146 336.000,228.272 340.869,234.160 346.819 " stroke="none" fill="#e34c61" fill-rule="evenodd"></path><path id="path2" d="M0.000 207.200 L 0.000 414.400 200.000 414.400 L 400.000 414.400 400.000 207.200 L 400.000 0.000 200.000 0.000 L 0.000 0.000 0.000 207.200 M73.383 20.373 C 74.474 20.552,75.434 20.901,75.516 21.149 C 75.599 21.397,76.038 21.600,76.492 21.600 C 78.160 21.600,84.800 26.917,84.800 28.253 C 84.800 28.507,85.070 28.818,85.400 28.945 C 85.730 29.071,86.000 29.519,86.000 29.938 C 86.000 30.358,86.265 30.922,86.589 31.191 C 86.914 31.460,87.284 32.337,87.412 33.140 C 87.540 33.943,87.904 35.191,88.222 35.914 C 88.644 36.873,88.800 38.893,88.800 43.414 L 88.800 49.600 103.738 49.600 L 118.675 49.600 118.913 41.844 C 119.121 35.056,119.254 33.897,119.976 32.550 C 120.429 31.704,120.800 30.867,120.800 30.690 C 120.800 30.142,122.502 27.955,124.719 25.654 C 126.798 23.496,127.595 22.895,129.600 21.971 C 130.150 21.717,131.086 21.255,131.680 20.944 C 134.022 19.717,143.724 19.782,144.975 21.032 C 145.287 21.345,145.839 21.600,146.200 21.600 C 148.212 21.600,155.600 28.033,155.600 29.785 C 155.600 30.069,155.870 30.526,156.200 30.800 C 156.530 31.074,156.801 31.681,156.802 32.149 C 156.804 32.617,157.112 33.540,157.487 34.200 C 158.041 35.174,158.197 36.738,158.317 42.500 L 158.465 49.600 173.395 49.600 L 188.325 49.600 188.463 42.041 C 188.581 35.528,188.697 34.376,189.300 33.710 C 189.685 33.285,190.000 32.559,190.000 32.097 C 190.000 31.635,190.246 31.011,190.547 30.710 C 190.848 30.409,191.218 29.773,191.369 29.296 C 192.014 27.266,198.691 21.600,200.440 21.600 C 200.713 21.600,201.285 21.285,201.710 20.900 C 202.818 19.898,213.518 19.853,214.658 20.846 C 215.066 21.202,215.939 21.621,216.598 21.779 C 218.447 22.220,224.772 27.744,224.794 28.937 C 224.797 29.122,225.160 29.731,225.600 30.291 C 226.040 30.850,226.400 31.656,226.400 32.083 C 226.400 32.509,226.670 33.127,227.000 33.457 C 227.492 33.949,227.600 35.454,227.600 41.829 L 227.600 49.600 242.800 49.600 L 258.000 49.600 258.000 42.876 C 258.000 37.584,258.125 35.988,258.587 35.376 C 258.910 34.949,259.183 34.150,259.193 33.600 C 259.203 33.050,259.472 32.150,259.790 31.600 C 260.108 31.050,260.502 30.330,260.665 30.000 C 262.225 26.842,265.643 23.627,269.200 21.974 C 269.750 21.719,270.672 21.264,271.249 20.962 C 273.598 19.736,283.332 19.789,284.578 21.035 C 284.888 21.346,285.491 21.600,285.917 21.600 C 286.344 21.600,287.150 21.960,287.709 22.400 C 288.269 22.840,288.847 23.200,288.995 23.200 C 289.798 23.200,295.600 29.851,295.600 30.771 C 295.600 30.994,295.974 31.893,296.431 32.770 C 297.157 34.163,297.291 35.324,297.491 41.959 L 297.721 49.553 308.379 49.677 C 317.724 49.785,319.169 49.886,320.105 50.500 C 320.692 50.885,321.419 51.200,321.720 51.200 C 322.534 51.200,326.043 54.806,326.656 56.273 C 326.948 56.973,327.371 57.658,327.594 57.796 C 327.863 57.963,328.000 68.744,328.000 89.791 L 328.000 121.534 326.979 123.567 C 326.417 124.685,325.787 125.600,325.579 125.600 C 325.371 125.600,325.200 125.806,325.200 126.058 C 325.200 126.309,324.564 127.074,323.788 127.758 L 322.375 129.000 322.488 171.877 L 322.600 214.753 337.138 200.340 C 345.135 192.413,352.245 185.671,352.938 185.358 C 353.632 185.044,354.470 184.632,354.800 184.441 C 356.821 183.271,363.148 182.437,364.555 183.155 C 365.020 183.392,366.207 183.759,367.193 183.971 C 368.179 184.183,369.049 184.546,369.126 184.778 C 369.203 185.010,369.506 185.200,369.797 185.200 C 371.718 185.200,396.000 209.567,396.000 211.494 C 396.000 211.633,396.379 212.531,396.843 213.488 C 397.959 215.794,397.859 223.808,396.698 225.091 C 396.314 225.516,396.000 226.086,396.000 226.359 C 396.000 226.632,395.452 227.652,394.782 228.626 C 393.670 230.242,323.038 301.200,322.541 301.200 C 322.423 301.200,321.869 301.560,321.309 302.000 C 320.122 302.934,316.768 303.107,315.929 302.278 C 314.450 300.816,313.980 301.035,309.924 305.076 C 305.865 309.120,305.195 310.434,306.600 311.600 C 307.500 312.347,307.359 315.284,306.341 317.010 C 305.454 318.514,259.321 364.800,258.709 364.800 C 258.521 364.800,258.149 364.989,257.883 365.220 C 257.157 365.852,232.714 378.000,232.169 378.000 C 231.910 378.000,231.489 378.252,231.233 378.561 C 230.977 378.869,230.281 379.243,229.688 379.392 C 229.094 379.541,228.516 379.792,228.404 379.949 C 228.292 380.106,227.120 380.742,225.800 381.362 C 224.480 381.982,223.130 382.650,222.800 382.848 C 222.160 383.230,220.981 383.786,220.000 384.169 C 219.670 384.298,218.500 384.931,217.400 385.575 C 216.300 386.220,215.158 386.759,214.863 386.773 C 214.568 386.788,213.869 387.160,213.309 387.600 C 212.750 388.040,211.978 388.400,211.595 388.400 C 211.212 388.400,210.683 388.658,210.421 388.974 C 210.159 389.290,209.430 389.662,208.800 389.800 C 208.170 389.938,207.441 390.310,207.179 390.626 C 206.917 390.942,206.437 391.200,206.114 391.200 C 205.791 391.200,205.069 391.560,204.509 392.000 C 203.950 392.440,203.178 392.800,202.795 392.800 C 202.412 392.800,201.883 393.058,201.621 393.374 C 201.359 393.690,200.630 394.062,200.000 394.200 C 199.370 394.338,198.641 394.710,198.379 395.026 C 197.518 396.063,190.445 395.818,188.960 394.700 C 185.131 391.817,183.160 386.505,184.964 383.930 C 185.314 383.431,185.600 382.685,185.600 382.274 C 185.600 381.863,185.960 381.069,186.400 380.509 C 186.840 379.950,187.200 379.178,187.200 378.795 C 187.200 378.412,187.458 377.883,187.774 377.621 C 188.090 377.359,188.462 376.630,188.600 376.000 C 188.738 375.370,189.110 374.641,189.426 374.379 C 189.742 374.117,190.000 373.637,190.000 373.314 C 190.000 372.991,190.360 372.269,190.800 371.709 C 191.240 371.150,191.600 370.378,191.600 369.995 C 191.600 369.612,191.858 369.083,192.174 368.821 C 192.490 368.559,192.862 367.830,193.000 367.200 C 193.138 366.570,193.510 365.841,193.826 365.579 C 194.142 365.317,194.400 364.837,194.400 364.514 C 194.400 364.191,194.760 363.469,195.200 362.909 C 195.640 362.350,196.000 361.578,196.000 361.195 C 196.000 360.812,196.258 360.283,196.574 360.021 C 196.890 359.759,197.262 359.030,197.400 358.400 C 197.538 357.770,197.910 357.041,198.226 356.779 C 198.542 356.517,198.800 355.992,198.800 355.612 C 198.800 355.233,199.160 354.507,199.600 354.000 C 200.040 353.493,200.400 352.767,200.400 352.388 C 200.400 352.008,200.658 351.483,200.974 351.221 C 201.290 350.959,201.662 350.230,201.800 349.600 C 201.938 348.970,202.310 348.241,202.626 347.979 C 202.942 347.717,203.200 347.192,203.200 346.812 C 203.200 346.433,203.560 345.707,204.000 345.200 C 204.440 344.693,204.800 343.967,204.800 343.588 C 204.800 343.208,205.058 342.683,205.374 342.421 C 205.690 342.159,206.062 341.430,206.200 340.800 C 206.338 340.170,206.698 339.450,207.000 339.200 C 207.302 338.950,207.662 338.230,207.800 337.600 C 207.938 336.970,208.310 336.241,208.626 335.979 C 208.942 335.717,209.200 335.237,209.200 334.914 C 209.200 334.591,209.560 333.869,210.000 333.309 C 210.440 332.750,210.800 331.978,210.800 331.595 C 210.800 331.212,211.058 330.683,211.374 330.421 C 211.690 330.159,212.062 329.430,212.200 328.800 C 212.338 328.170,212.710 327.441,213.026 327.179 C 213.342 326.917,213.600 326.392,213.600 326.012 C 213.600 325.633,213.960 324.907,214.400 324.400 C 214.840 323.893,215.200 323.227,215.200 322.921 C 215.200 322.615,216.775 320.738,218.700 318.749 C 220.625 316.760,222.260 314.968,222.333 314.766 C 222.414 314.545,186.945 314.394,132.933 314.386 C 56.073 314.374,43.258 314.291,42.400 313.800 C 41.850 313.486,41.012 313.222,40.537 313.214 C 38.557 313.182,31.983 308.982,29.945 306.447 C 28.032 304.068,27.600 303.427,27.600 302.968 C 27.600 302.709,27.342 302.283,27.026 302.021 C 26.710 301.759,26.326 300.975,26.173 300.278 C 26.020 299.582,25.604 298.567,25.248 298.024 C 24.657 297.122,24.591 289.656,24.494 213.018 L 24.387 129.000 22.494 127.179 C 21.452 126.177,20.195 124.611,19.700 123.699 L 18.800 122.042 18.800 89.870 C 18.800 62.140,18.881 57.631,19.385 57.213 C 19.706 56.946,20.087 56.339,20.231 55.864 C 20.565 54.760,24.292 51.200,25.114 51.200 C 25.457 51.200,26.085 50.885,26.510 50.500 C 27.197 49.877,28.468 49.786,38.041 49.671 L 48.800 49.542 48.800 43.395 C 48.800 39.728,48.961 37.147,49.200 37.000 C 49.420 36.864,49.600 36.122,49.600 35.352 C 49.600 33.949,51.285 29.867,52.274 28.871 C 52.564 28.581,52.800 28.195,52.800 28.014 C 52.800 27.572,57.264 23.200,57.716 23.200 C 57.913 23.200,58.531 22.840,59.091 22.400 C 59.650 21.960,60.422 21.600,60.805 21.600 C 61.188 21.600,61.718 21.340,61.981 21.022 C 62.734 20.116,69.474 19.732,73.383 20.373 M166.740 124.290 C 166.409 124.680,165.921 125.720,165.655 126.600 C 165.373 127.535,164.644 128.616,163.902 129.200 L 162.632 130.200 99.912 130.304 L 37.192 130.407 37.296 212.914 C 37.388 285.552,37.472 295.508,38.000 296.161 C 39.542 298.067,42.014 300.400,42.492 300.400 C 42.784 300.400,43.467 300.715,44.011 301.100 C 45.254 301.980,91.851 302.213,179.502 301.779 L 235.605 301.502 245.167 291.975 L 254.729 282.449 252.577 282.180 C 251.393 282.032,250.217 281.661,249.963 281.355 C 249.709 281.050,249.192 280.800,248.812 280.800 C 248.076 280.800,243.200 276.386,243.200 275.719 C 243.200 275.501,242.857 274.927,242.437 274.443 C 241.338 273.175,241.088 268.145,241.264 250.789 L 241.412 236.200 242.544 234.300 C 243.167 233.255,243.839 232.400,244.038 232.400 C 244.237 232.400,244.400 232.200,244.400 231.956 C 244.400 231.390,246.069 229.616,246.611 229.607 C 246.837 229.603,247.330 229.240,247.707 228.800 C 248.084 228.360,248.779 228.000,249.252 228.000 C 249.725 228.000,250.342 227.685,250.624 227.300 C 251.096 226.654,252.353 226.600,267.000 226.600 C 281.647 226.600,282.904 226.654,283.376 227.300 C 283.658 227.685,284.273 228.000,284.744 228.000 C 285.215 228.000,285.960 228.360,286.400 228.800 C 286.840 229.240,287.337 229.600,287.504 229.600 C 287.672 229.600,288.257 230.165,288.804 230.855 C 289.352 231.545,290.115 232.395,290.500 232.744 C 290.885 233.092,291.200 233.714,291.200 234.126 C 291.200 234.537,291.560 235.331,292.000 235.891 C 292.670 236.742,292.800 237.514,292.800 240.621 L 292.800 244.335 301.200 235.972 L 309.600 227.609 309.600 179.008 L 309.600 130.407 246.300 130.304 L 183.000 130.200 181.421 128.657 C 180.242 127.504,179.786 126.695,179.621 125.457 L 179.400 123.800 173.371 123.690 C 168.007 123.592,167.276 123.658,166.740 124.290 M95.462 149.400 C 96.251 149.730,97.318 150.000,97.831 150.000 C 99.373 150.000,105.200 154.534,105.200 155.733 C 105.200 155.955,105.503 156.472,105.873 156.881 C 108.087 159.327,108.043 194.814,105.823 197.034 C 105.480 197.377,105.200 197.879,105.200 198.150 C 105.200 199.674,99.364 204.000,97.309 204.000 C 96.677 204.000,95.935 204.225,95.661 204.500 C 94.832 205.330,70.144 205.438,68.188 204.621 C 67.371 204.279,66.209 204.000,65.605 204.000 C 65.002 204.000,64.050 203.640,63.491 203.200 C 62.931 202.760,62.350 202.400,62.199 202.400 C 61.711 202.400,58.400 199.057,58.400 198.563 C 58.400 198.301,58.130 197.982,57.800 197.855 C 57.470 197.729,57.194 197.304,57.186 196.913 C 57.179 196.521,56.825 195.480,56.400 194.600 C 55.676 193.101,55.627 191.994,55.627 177.000 C 55.627 162.006,55.676 160.899,56.400 159.400 C 56.825 158.520,57.179 157.479,57.186 157.087 C 57.194 156.696,57.470 156.271,57.800 156.145 C 58.130 156.018,58.400 155.693,58.400 155.421 C 58.400 154.183,63.868 150.007,65.518 149.986 C 66.113 149.978,67.050 149.714,67.600 149.400 C 69.109 148.537,93.397 148.537,95.462 149.400 M157.462 149.400 C 158.251 149.730,159.304 150.000,159.800 150.000 C 160.296 150.000,160.926 150.270,161.200 150.600 C 161.474 150.930,161.950 151.200,162.258 151.200 C 162.973 151.200,167.200 155.475,167.200 156.198 C 167.200 156.498,167.515 157.058,167.900 157.443 C 169.077 158.619,169.181 194.488,168.012 196.070 C 167.565 196.674,167.200 197.400,167.200 197.685 C 167.200 199.180,161.153 204.000,159.278 204.000 C 158.849 204.000,157.851 204.270,157.062 204.600 C 155.892 205.089,153.362 205.200,143.400 205.200 C 133.438 205.200,130.908 205.089,129.738 204.600 C 128.949 204.270,127.797 204.000,127.180 204.000 C 126.562 204.000,125.819 203.775,125.529 203.500 C 125.238 203.225,124.203 202.460,123.230 201.800 C 122.256 201.140,121.113 200.015,120.690 199.300 C 120.267 198.585,119.759 198.000,119.560 198.000 C 119.362 198.000,119.200 197.729,119.200 197.399 C 119.200 197.068,118.840 196.125,118.400 195.304 C 117.162 192.996,117.162 160.469,118.400 158.600 C 118.837 157.940,119.196 157.079,119.197 156.687 C 119.199 156.296,119.470 155.871,119.800 155.745 C 120.130 155.618,120.400 155.301,120.400 155.040 C 120.400 154.491,123.344 151.600,123.903 151.600 C 124.109 151.600,124.693 151.240,125.200 150.800 C 125.707 150.360,126.590 149.992,127.161 149.982 C 127.733 149.972,128.740 149.717,129.400 149.414 C 131.240 148.572,155.450 148.560,157.462 149.400 M219.062 149.400 C 219.851 149.730,220.849 150.000,221.278 150.000 C 223.139 150.000,228.440 154.191,229.030 156.129 C 229.175 156.608,229.588 157.334,229.947 157.742 C 230.526 158.399,230.613 160.494,230.716 176.233 L 230.831 193.983 229.798 196.168 C 228.694 198.500,225.457 202.400,224.624 202.400 C 224.348 202.400,223.707 202.760,223.200 203.200 C 222.693 203.640,221.787 204.000,221.188 204.000 C 220.588 204.000,219.451 204.270,218.662 204.600 C 216.549 205.483,193.148 205.481,191.454 204.598 C 190.824 204.269,189.813 204.000,189.208 204.000 C 188.603 204.000,187.650 203.640,187.091 203.200 C 186.531 202.760,185.922 202.399,185.737 202.398 C 184.912 202.393,181.200 198.261,181.200 197.347 C 181.200 197.078,180.885 196.542,180.500 196.157 C 179.522 195.180,179.221 160.056,180.176 158.400 C 180.493 157.850,181.007 156.855,181.319 156.188 C 182.426 153.820,187.152 150.000,188.974 150.000 C 189.488 150.000,190.514 149.737,191.254 149.416 C 193.261 148.544,216.982 148.531,219.062 149.400 M281.600 149.400 C 282.150 149.714,283.012 149.978,283.516 149.986 C 284.963 150.008,288.928 152.966,290.181 154.958 C 292.927 159.323,292.774 158.027,292.786 177.000 C 292.797 193.496,292.764 194.254,291.999 195.510 C 291.559 196.230,291.200 197.007,291.200 197.236 C 291.200 198.382,287.578 202.237,286.129 202.634 C 285.650 202.765,285.161 203.126,285.041 203.436 C 284.918 203.758,284.262 204.006,283.513 204.014 C 282.791 204.022,281.750 204.286,281.200 204.600 C 279.698 205.458,253.710 205.470,252.576 204.613 C 252.149 204.290,251.237 204.020,250.549 204.013 C 249.861 204.006,249.080 203.737,248.813 203.415 C 248.546 203.094,247.969 202.717,247.530 202.578 C 246.529 202.260,243.283 198.872,242.952 197.800 C 242.816 197.360,242.412 196.666,242.053 196.258 C 240.775 194.806,240.899 158.758,242.186 157.471 C 242.466 157.191,242.830 156.536,242.996 156.014 C 243.367 154.843,246.952 151.200,247.732 151.200 C 248.046 151.200,248.526 150.930,248.800 150.600 C 249.074 150.270,249.782 150.000,250.373 150.000 C 250.964 150.000,251.796 149.736,252.224 149.413 C 253.359 148.554,280.099 148.542,281.600 149.400 M159.600 227.400 C 159.874 227.730,160.436 228.000,160.849 228.000 C 161.262 228.000,161.960 228.360,162.400 228.800 C 162.840 229.240,163.331 229.600,163.491 229.600 C 163.907 229.600,166.822 232.846,167.264 233.800 C 167.468 234.240,167.894 235.050,168.211 235.600 C 168.690 236.430,168.789 239.641,168.794 254.479 L 168.800 272.358 167.790 274.258 C 166.574 276.543,162.865 280.268,161.450 280.623 C 160.891 280.764,160.223 281.131,159.967 281.439 C 159.248 282.307,127.521 282.269,126.800 281.400 C 126.526 281.070,125.964 280.800,125.551 280.800 C 125.138 280.800,124.440 280.440,124.000 280.000 C 123.560 279.560,123.063 279.200,122.896 279.200 C 122.728 279.200,122.143 278.641,121.596 277.958 C 121.048 277.275,120.409 276.510,120.174 276.258 C 119.940 276.006,119.265 274.776,118.674 273.525 L 117.600 271.250 117.600 254.519 C 117.600 238.552,117.637 237.720,118.400 236.296 C 118.840 235.475,119.200 234.551,119.200 234.243 C 119.200 233.279,124.327 228.395,125.607 228.139 C 126.253 228.009,126.988 227.655,127.240 227.352 C 127.953 226.493,158.885 226.539,159.600 227.400 M64.446 229.304 C 65.662 229.894,68.800 232.689,73.646 237.498 C 77.691 241.512,81.169 244.939,81.376 245.114 C 81.587 245.293,85.139 242.055,89.482 237.723 C 98.352 228.878,100.548 227.418,102.624 228.987 C 103.051 229.310,103.649 229.580,103.954 229.587 C 105.784 229.629,107.351 233.269,106.937 236.517 C 106.700 238.378,106.462 238.664,98.699 246.432 C 90.741 254.395,90.708 254.435,91.452 255.271 C 91.864 255.733,95.412 259.318,99.338 263.238 C 107.083 270.971,107.441 271.534,106.948 275.200 C 106.707 276.994,105.177 279.200,104.174 279.200 C 103.912 279.200,103.474 279.470,103.200 279.800 C 102.900 280.161,102.025 280.400,101.000 280.400 C 99.975 280.400,99.100 280.161,98.800 279.800 C 98.526 279.470,98.114 279.200,97.884 279.200 C 97.654 279.200,94.281 276.005,90.389 272.100 C 86.496 268.195,82.938 264.667,82.480 264.260 C 81.655 263.525,81.587 263.581,73.969 271.148 C 65.009 280.049,61.844 282.022,60.033 279.839 C 59.777 279.531,59.170 279.174,58.684 279.047 C 56.780 278.549,55.091 274.389,55.985 272.400 C 56.903 270.357,57.556 269.613,64.700 262.474 C 68.795 258.381,72.000 254.860,72.000 254.454 C 72.000 254.051,68.668 250.344,64.500 246.108 C 55.439 236.902,55.930 237.497,55.730 235.459 C 55.552 233.631,57.359 230.171,58.711 229.754 C 59.090 229.637,59.850 229.289,60.400 228.981 C 61.761 228.219,62.302 228.262,64.446 229.304 M187.974 229.274 C 189.173 229.848,192.314 232.630,197.121 237.374 C 201.148 241.348,204.728 244.663,205.077 244.740 C 205.471 244.827,208.538 242.078,213.156 237.498 C 221.855 228.872,224.076 227.424,226.176 229.013 C 226.604 229.336,227.229 229.600,227.566 229.600 C 229.196 229.600,230.800 232.410,230.800 235.265 L 230.800 237.984 222.500 246.189 L 214.200 254.394 221.423 261.523 C 230.770 270.748,230.800 270.788,230.800 274.066 C 230.800 276.578,229.470 279.200,228.196 279.200 C 228.013 279.200,227.531 279.500,227.126 279.867 C 226.142 280.757,223.100 280.757,222.210 279.867 C 221.843 279.500,221.307 279.200,221.018 279.200 C 220.730 279.200,217.168 275.780,213.104 271.600 C 209.040 267.420,205.475 264.000,205.182 264.000 C 204.889 264.000,201.308 267.329,197.224 271.397 C 187.843 280.742,186.591 281.457,182.962 279.535 C 180.596 278.282,179.600 276.631,179.600 273.964 C 179.600 271.107,179.561 271.159,188.535 262.115 L 196.161 254.431 188.830 247.115 C 179.495 237.801,179.600 237.940,179.600 234.935 C 179.600 232.437,181.291 229.620,182.810 229.587 C 183.135 229.580,183.749 229.310,184.176 228.987 C 185.219 228.199,185.822 228.244,187.974 229.274 M222.000 337.804 C 222.000 338.356,221.640 339.116,221.200 339.493 C 220.760 339.870,220.400 340.566,220.400 341.040 C 220.400 341.514,220.142 342.117,219.826 342.379 C 219.510 342.641,219.133 343.395,218.988 344.055 C 218.843 344.714,218.472 345.351,218.162 345.470 C 217.853 345.588,217.600 346.118,217.600 346.647 C 217.600 347.175,217.240 347.916,216.800 348.293 C 215.214 349.651,215.720 351.280,218.597 354.076 C 221.755 357.145,222.280 357.600,222.668 357.600 C 222.979 357.600,235.370 351.486,236.346 350.851 C 236.971 350.445,223.602 336.800,222.579 336.800 C 222.227 336.800,222.000 337.194,222.000 337.804 " stroke="none" fill="#f6f9fb" fill-rule="evenodd"></path><path id="path3" d="M65.907 32.723 C 64.162 33.165,62.215 35.312,61.472 37.610 C 60.323 41.168,60.518 61.424,61.729 64.364 C 64.323 70.661,72.318 70.882,75.428 64.744 C 76.878 61.883,76.924 39.755,75.486 36.747 C 73.814 33.248,70.059 31.671,65.907 32.723 M135.561 32.681 C 133.992 32.923,131.781 35.487,131.253 37.677 C 130.663 40.122,130.644 60.834,131.229 63.563 C 132.601 69.958,140.889 71.208,144.811 65.611 L 145.800 64.200 145.800 50.800 C 145.800 38.244,145.751 37.324,145.028 36.200 C 142.890 32.876,140.365 31.937,135.561 32.681 M205.322 32.655 C 203.979 32.953,201.255 35.897,200.991 37.336 C 200.229 41.483,200.998 64.997,201.936 66.247 C 205.035 70.376,211.260 70.115,214.385 65.725 L 215.400 64.300 215.536 53.250 C 215.723 38.038,215.590 36.853,213.428 34.564 C 211.687 32.721,208.451 31.959,205.322 32.655 M275.002 32.670 C 270.819 33.858,270.427 35.401,270.412 50.709 L 270.400 64.017 271.407 65.538 C 275.310 71.437,283.414 70.051,284.968 63.220 C 285.807 59.531,285.846 42.278,285.024 38.444 C 284.030 33.809,279.723 31.328,275.002 32.670 M281.842 272.758 L 229.485 325.116 230.305 326.266 C 232.835 329.820,238.031 334.095,238.896 333.336 C 243.526 329.272,343.200 229.129,343.200 228.541 C 343.200 227.523,336.018 220.400,334.992 220.400 C 334.472 220.400,316.175 238.424,281.842 272.758 M299.505 289.905 C 270.743 318.667,247.112 342.311,246.991 342.447 C 246.588 342.903,254.634 350.608,255.365 350.466 C 255.744 350.392,265.190 341.212,276.357 330.066 C 287.523 318.919,297.224 309.395,297.914 308.900 C 299.687 307.627,302.346 307.670,303.922 308.996 L 305.106 309.992 309.744 305.312 C 314.321 300.692,314.371 300.621,313.643 299.816 C 312.664 298.733,312.331 297.175,312.651 295.174 C 312.895 293.647,314.528 291.918,336.192 270.261 C 348.995 257.461,359.673 246.610,359.921 246.148 C 360.387 245.277,354.216 238.375,352.480 237.826 C 351.980 237.668,337.958 251.452,299.505 289.905 M222.510 336.678 C 223.837 337.023,236.951 350.457,236.346 350.851 C 235.370 351.486,222.979 357.600,222.668 357.600 C 221.564 357.600,216.060 351.673,215.889 350.301 L 215.728 349.000 215.666 350.400 C 215.599 351.885,228.179 365.600,229.608 365.600 C 230.417 365.600,243.844 358.870,244.420 358.176 C 244.795 357.724,244.049 356.797,240.542 353.361 C 238.154 351.021,233.309 346.248,229.775 342.753 C 225.638 338.662,223.075 336.417,222.575 336.446 C 221.889 336.487,221.882 336.514,222.510 336.678 M221.170 338.607 C 220.684 339.621,220.662 339.874,221.073 339.716 C 221.577 339.523,222.267 337.718,221.948 337.428 C 221.867 337.354,221.516 337.884,221.170 338.607 M219.500 341.812 C 219.115 342.328,218.800 342.992,218.800 343.286 C 218.800 343.581,218.503 344.246,218.140 344.764 C 217.665 345.443,217.630 345.657,218.015 345.528 C 218.309 345.430,218.720 344.821,218.927 344.175 C 219.135 343.529,219.569 342.695,219.893 342.323 C 220.217 341.951,220.419 341.473,220.341 341.260 C 220.263 341.048,219.885 341.296,219.500 341.812 M217.200 346.571 C 217.200 346.886,216.909 347.434,216.552 347.790 C 216.196 348.147,215.995 348.528,216.105 348.638 C 216.459 348.992,217.600 347.568,217.600 346.771 C 217.600 346.347,217.510 346.000,217.400 346.000 C 217.290 346.000,217.200 346.257,217.200 346.571 " stroke="none" fill="#f3be60" fill-rule="evenodd"></path><path id="path4" d="M63.930 20.290 C 63.122 20.375,62.245 20.705,61.981 21.022 C 61.718 21.340,61.188 21.600,60.805 21.600 C 60.422 21.600,59.650 21.960,59.091 22.400 C 58.531 22.840,57.913 23.200,57.716 23.200 C 57.264 23.200,52.800 27.572,52.800 28.014 C 52.800 28.195,52.564 28.581,52.274 28.871 C 51.285 29.867,49.600 33.949,49.600 35.352 C 49.600 36.122,49.420 36.864,49.200 37.000 C 48.961 37.147,48.800 39.728,48.800 43.395 L 48.800 49.542 38.041 49.671 C 28.468 49.786,27.197 49.877,26.510 50.500 C 26.085 50.885,25.457 51.200,25.114 51.200 C 24.292 51.200,20.565 54.760,20.231 55.864 C 20.087 56.339,19.706 56.946,19.385 57.213 C 18.881 57.631,18.800 62.140,18.800 89.870 L 18.800 122.042 19.700 123.699 C 20.195 124.611,21.452 126.177,22.494 127.179 L 24.387 129.000 24.494 213.018 C 24.591 289.656,24.657 297.122,25.248 298.024 C 25.604 298.567,26.020 299.582,26.173 300.278 C 26.326 300.975,26.710 301.759,27.026 302.021 C 27.342 302.283,27.600 302.709,27.600 302.968 C 27.600 303.427,28.032 304.068,29.945 306.447 C 31.983 308.982,38.557 313.182,40.537 313.214 C 41.012 313.222,41.850 313.486,42.400 313.800 C 43.258 314.291,56.073 314.374,132.933 314.386 C 186.945 314.394,222.414 314.545,222.333 314.766 C 222.260 314.968,220.625 316.760,218.700 318.749 C 216.775 320.738,215.200 322.615,215.200 322.921 C 215.200 323.227,214.840 323.893,214.400 324.400 C 213.960 324.907,213.600 325.633,213.600 326.012 C 213.600 326.392,213.342 326.917,213.026 327.179 C 212.710 327.441,212.338 328.170,212.200 328.800 C 212.062 329.430,211.690 330.159,211.374 330.421 C 211.058 330.683,210.800 331.212,210.800 331.595 C 210.800 331.978,210.440 332.750,210.000 333.309 C 209.560 333.869,209.200 334.591,209.200 334.914 C 209.200 335.237,208.942 335.717,208.626 335.979 C 208.310 336.241,207.938 336.970,207.800 337.600 C 207.662 338.230,207.302 338.950,207.000 339.200 C 206.698 339.450,206.338 340.170,206.200 340.800 C 206.062 341.430,205.690 342.159,205.374 342.421 C 205.058 342.683,204.800 343.208,204.800 343.588 C 204.800 343.967,204.440 344.693,204.000 345.200 C 203.560 345.707,203.200 346.433,203.200 346.812 C 203.200 347.192,202.942 347.717,202.626 347.979 C 202.310 348.241,201.938 348.970,201.800 349.600 C 201.662 350.230,201.290 350.959,200.974 351.221 C 200.658 351.483,200.400 352.008,200.400 352.388 C 200.400 352.767,200.040 353.493,199.600 354.000 C 199.160 354.507,198.800 355.233,198.800 355.612 C 198.800 355.992,198.542 356.517,198.226 356.779 C 197.910 357.041,197.538 357.770,197.400 358.400 C 197.262 359.030,196.890 359.759,196.574 360.021 C 196.258 360.283,196.000 360.812,196.000 361.195 C 196.000 361.578,195.640 362.350,195.200 362.909 C 194.760 363.469,194.400 364.191,194.400 364.514 C 194.400 364.837,194.142 365.317,193.826 365.579 C 193.510 365.841,193.138 366.570,193.000 367.200 C 192.862 367.830,192.490 368.559,192.174 368.821 C 191.858 369.083,191.600 369.612,191.600 369.995 C 191.600 370.378,191.240 371.150,190.800 371.709 C 190.360 372.269,190.000 372.991,190.000 373.314 C 190.000 373.637,189.742 374.117,189.426 374.379 C 189.110 374.641,188.738 375.370,188.600 376.000 C 188.462 376.630,188.090 377.359,187.774 377.621 C 187.458 377.883,187.200 378.412,187.200 378.795 C 187.200 379.178,186.840 379.950,186.400 380.509 C 185.960 381.069,185.600 381.863,185.600 382.274 C 185.600 382.685,185.314 383.431,184.964 383.930 C 183.160 386.505,185.131 391.817,188.960 394.700 C 190.445 395.818,197.518 396.063,198.379 395.026 C 198.641 394.710,199.370 394.338,200.000 394.200 C 200.630 394.062,201.359 393.690,201.621 393.374 C 201.883 393.058,202.412 392.800,202.795 392.800 C 203.178 392.800,203.950 392.440,204.509 392.000 C 205.069 391.560,205.791 391.200,206.114 391.200 C 206.437 391.200,206.917 390.942,207.179 390.626 C 207.441 390.310,208.170 389.938,208.800 389.800 C 209.430 389.662,210.159 389.290,210.421 388.974 C 210.683 388.658,211.212 388.400,211.595 388.400 C 211.978 388.400,212.750 388.040,213.309 387.600 C 213.869 387.160,214.568 386.788,214.863 386.773 C 215.158 386.759,216.300 386.220,217.400 385.575 C 218.500 384.931,219.670 384.298,220.000 384.169 C 220.981 383.786,222.160 383.230,222.800 382.848 C 223.130 382.650,224.480 381.982,225.800 381.362 C 227.120 380.742,228.292 380.106,228.404 379.949 C 228.516 379.792,229.094 379.541,229.688 379.392 C 230.281 379.243,230.977 378.869,231.233 378.561 C 231.489 378.252,231.910 378.000,232.169 378.000 C 232.714 378.000,257.157 365.852,257.883 365.220 C 258.149 364.989,258.521 364.800,258.709 364.800 C 259.321 364.800,305.454 318.514,306.341 317.010 C 307.359 315.284,307.500 312.347,306.600 311.600 C 306.270 311.326,306.000 310.728,306.000 310.271 C 306.000 309.643,305.887 309.553,305.539 309.901 C 305.190 310.250,305.250 310.814,305.782 312.209 C 307.093 315.641,307.711 314.905,281.705 340.845 L 258.200 364.290 227.400 379.630 C 192.843 396.841,193.933 396.414,190.028 394.279 C 186.936 392.589,185.796 390.524,185.823 386.661 L 185.845 383.400 191.950 371.200 C 195.308 364.490,198.211 358.730,198.402 358.400 C 198.593 358.070,199.222 356.810,199.800 355.600 C 200.378 354.390,201.019 353.130,201.226 352.800 C 201.433 352.470,201.781 351.750,202.001 351.200 C 202.220 350.650,202.580 349.930,202.801 349.600 C 203.021 349.270,203.391 348.550,203.622 348.000 C 204.165 346.705,205.533 343.968,206.020 343.200 C 206.229 342.870,206.580 342.150,206.799 341.600 C 207.019 341.050,207.379 340.330,207.599 340.000 C 207.820 339.670,208.180 338.950,208.399 338.400 C 208.619 337.850,208.973 337.130,209.188 336.800 C 209.402 336.470,211.063 333.140,212.879 329.400 C 216.044 322.883,216.336 322.440,219.891 318.762 C 223.706 314.815,224.053 314.260,222.967 313.843 C 222.619 313.709,182.704 313.600,134.267 313.600 C 36.716 313.599,42.874 313.766,37.400 310.978 C 31.885 308.170,27.932 303.408,26.000 297.248 C 25.211 294.730,25.200 293.583,25.194 211.648 L 25.188 128.600 23.094 126.545 C 21.666 125.145,20.709 123.745,20.085 122.145 L 19.170 119.800 19.285 89.400 L 19.400 59.000 20.331 57.255 C 23.365 51.569,25.901 50.648,38.990 50.478 C 44.720 50.403,49.182 50.181,49.453 49.956 C 49.775 49.689,49.974 47.178,50.078 42.082 L 50.230 34.600 51.587 31.800 C 57.620 19.360,73.805 16.928,82.786 27.113 C 86.777 31.638,87.289 33.275,87.511 42.200 C 87.610 46.160,87.872 49.625,88.094 49.900 C 88.774 50.742,119.032 50.614,119.357 49.767 C 119.491 49.419,119.600 46.270,119.600 42.769 C 119.600 28.979,126.583 20.800,138.356 20.800 C 150.470 20.800,157.049 28.608,157.571 43.600 L 157.800 50.200 173.173 50.305 C 185.207 50.387,188.616 50.300,188.867 49.905 C 189.044 49.627,189.191 46.716,189.194 43.435 C 189.211 27.016,200.442 17.154,213.972 21.679 C 223.089 24.729,226.733 30.621,227.155 43.000 L 227.400 50.200 243.000 50.200 L 258.600 50.200 258.842 43.800 C 259.226 33.629,260.947 29.090,265.971 25.000 C 274.485 18.069,288.603 20.249,293.850 29.304 C 294.350 30.168,294.529 30.540,295.921 33.600 C 296.401 34.655,296.613 36.875,296.779 42.600 L 297.000 50.200 307.400 50.429 C 319.879 50.703,321.775 51.203,324.890 55.037 C 327.518 58.271,327.400 56.613,327.400 90.187 L 327.400 120.600 326.366 122.801 C 325.797 124.012,324.492 125.803,323.466 126.781 L 321.600 128.559 321.600 171.706 C 321.600 198.548,321.745 215.124,321.985 215.571 C 322.314 216.186,324.254 214.417,335.501 203.245 C 355.382 183.495,354.380 184.226,361.600 184.225 C 368.674 184.224,368.680 184.228,381.932 197.364 C 395.821 211.131,396.395 211.955,396.697 218.568 C 396.867 222.278,396.663 223.134,394.663 227.119 C 393.651 229.136,322.848 300.127,320.714 301.266 C 319.117 302.117,317.731 302.161,316.400 301.400 C 315.218 300.724,314.400 300.643,314.400 301.200 C 314.400 301.420,314.593 301.600,314.829 301.600 C 315.064 301.600,315.527 301.870,315.857 302.200 C 316.762 303.105,320.058 302.984,321.309 302.000 C 321.869 301.560,322.423 301.200,322.541 301.200 C 323.038 301.200,393.670 230.242,394.782 228.626 C 395.452 227.652,396.000 226.632,396.000 226.359 C 396.000 226.086,396.314 225.516,396.698 225.091 C 397.859 223.808,397.959 215.794,396.843 213.488 C 396.379 212.531,396.000 211.633,396.000 211.494 C 396.000 209.567,371.718 185.200,369.797 185.200 C 369.506 185.200,369.203 185.010,369.126 184.778 C 369.049 184.546,368.179 184.183,367.193 183.971 C 366.207 183.759,365.020 183.392,364.555 183.155 C 363.148 182.437,356.821 183.271,354.800 184.441 C 354.470 184.632,353.632 185.044,352.938 185.358 C 352.245 185.671,345.135 192.413,337.138 200.340 L 322.600 214.753 322.488 171.877 L 322.375 129.000 323.788 127.758 C 324.564 127.074,325.200 126.309,325.200 126.058 C 325.200 125.806,325.371 125.600,325.579 125.600 C 325.787 125.600,326.417 124.685,326.979 123.567 L 328.000 121.534 328.000 89.791 C 328.000 68.744,327.863 57.963,327.594 57.796 C 327.371 57.658,326.948 56.973,326.656 56.273 C 326.043 54.806,322.534 51.200,321.720 51.200 C 321.419 51.200,320.692 50.885,320.105 50.500 C 319.169 49.886,317.724 49.785,308.379 49.677 L 297.721 49.553 297.491 41.959 C 297.291 35.324,297.157 34.163,296.431 32.770 C 295.974 31.893,295.600 30.994,295.600 30.771 C 295.600 29.851,289.798 23.200,288.995 23.200 C 288.847 23.200,288.269 22.840,287.709 22.400 C 287.150 21.960,286.344 21.600,285.917 21.600 C 285.491 21.600,284.888 21.346,284.578 21.035 C 283.332 19.789,273.598 19.736,271.249 20.962 C 270.672 21.264,269.750 21.719,269.200 21.974 C 265.643 23.627,262.225 26.842,260.665 30.000 C 260.502 30.330,260.108 31.050,259.790 31.600 C 259.472 32.150,259.203 33.050,259.193 33.600 C 259.183 34.150,258.910 34.949,258.587 35.376 C 258.125 35.988,258.000 37.584,258.000 42.876 L 258.000 49.600 242.800 49.600 L 227.600 49.600 227.600 41.829 C 227.600 35.454,227.492 33.949,227.000 33.457 C 226.670 33.127,226.400 32.509,226.400 32.083 C 226.400 31.656,226.040 30.850,225.600 30.291 C 225.160 29.731,224.797 29.122,224.794 28.937 C 224.772 27.744,218.447 22.220,216.598 21.779 C 215.939 21.621,215.066 21.202,214.658 20.846 C 213.518 19.853,202.818 19.898,201.710 20.900 C 201.285 21.285,200.713 21.600,200.440 21.600 C 198.691 21.600,192.014 27.266,191.369 29.296 C 191.218 29.773,190.848 30.409,190.547 30.710 C 190.246 31.011,190.000 31.635,190.000 32.097 C 190.000 32.559,189.685 33.285,189.300 33.710 C 188.697 34.376,188.581 35.528,188.463 42.041 L 188.325 49.600 173.395 49.600 L 158.465 49.600 158.317 42.500 C 158.197 36.738,158.041 35.174,157.487 34.200 C 157.112 33.540,156.804 32.617,156.802 32.149 C 156.801 31.681,156.530 31.074,156.200 30.800 C 155.870 30.526,155.600 30.069,155.600 29.785 C 155.600 28.033,148.212 21.600,146.200 21.600 C 145.839 21.600,145.287 21.345,144.975 21.032 C 143.724 19.782,134.022 19.717,131.680 20.944 C 131.086 21.255,130.150 21.717,129.600 21.971 C 127.595 22.895,126.798 23.496,124.719 25.654 C 122.502 27.955,120.800 30.142,120.800 30.690 C 120.800 30.867,120.429 31.704,119.976 32.550 C 119.254 33.897,119.121 35.056,118.913 41.844 L 118.675 49.600 103.738 49.600 L 88.800 49.600 88.800 43.414 C 88.800 38.893,88.644 36.873,88.222 35.914 C 87.904 35.191,87.540 33.943,87.412 33.140 C 87.284 32.337,86.914 31.460,86.589 31.191 C 86.265 30.922,86.000 30.358,86.000 29.938 C 86.000 29.519,85.730 29.071,85.400 28.945 C 85.070 28.818,84.800 28.507,84.800 28.253 C 84.800 26.917,78.160 21.600,76.492 21.600 C 76.038 21.600,75.599 21.397,75.516 21.149 C 75.220 20.260,68.754 19.780,63.930 20.290 M30.662 106.331 C 29.585 107.522,29.696 116.896,30.800 118.000 C 31.593 118.793,32.133 118.800,95.903 118.800 C 136.713 118.800,160.705 118.943,161.573 119.192 C 166.068 120.481,166.720 126.254,162.653 128.767 L 161.306 129.600 99.426 129.600 C 57.537 129.600,37.297 129.734,36.774 130.014 C 35.749 130.562,35.544 290.453,36.563 294.280 C 37.438 297.567,39.140 299.617,42.555 301.500 L 44.188 302.400 140.194 302.398 L 236.200 302.396 246.300 292.314 C 257.978 280.658,256.819 282.135,254.700 281.609 C 250.042 280.453,248.650 279.783,246.370 277.600 C 242.151 273.561,242.200 273.834,242.200 254.200 L 242.200 237.400 243.158 235.600 C 245.271 231.628,247.633 229.518,251.371 228.262 C 254.340 227.265,279.463 227.277,282.522 228.278 C 288.396 230.199,292.000 235.558,292.000 242.372 C 292.000 246.926,292.005 246.923,301.614 237.291 C 309.367 229.519,310.311 228.431,310.538 227.000 C 311.293 222.234,310.809 130.433,310.026 130.014 C 309.502 129.734,289.057 129.599,246.726 129.597 C 177.458 129.594,183.344 129.816,181.229 127.128 C 179.246 124.607,180.796 120.083,183.942 119.209 C 184.898 118.944,207.715 118.804,250.238 118.802 C 312.542 118.800,315.102 118.771,315.738 118.069 C 316.515 117.210,316.715 107.737,315.986 106.374 C 315.353 105.192,31.732 105.150,30.662 106.331 M179.621 125.457 C 179.786 126.695,180.242 127.504,181.421 128.657 L 183.000 130.200 246.300 130.304 L 309.600 130.407 309.600 179.008 L 309.600 227.609 301.200 235.972 L 292.800 244.335 292.800 240.621 C 292.800 237.514,292.670 236.742,292.000 235.891 C 291.560 235.331,291.200 234.537,291.200 234.126 C 291.200 233.714,290.885 233.092,290.500 232.744 C 290.115 232.395,289.352 231.545,288.804 230.855 C 288.257 230.165,287.672 229.600,287.504 229.600 C 287.337 229.600,286.840 229.240,286.400 228.800 C 285.960 228.360,285.215 228.000,284.744 228.000 C 284.273 228.000,283.658 227.685,283.376 227.300 C 282.588 226.222,251.412 226.222,250.624 227.300 C 250.342 227.685,249.725 228.000,249.252 228.000 C 248.779 228.000,248.084 228.360,247.707 228.800 C 247.330 229.240,246.837 229.603,246.611 229.607 C 246.069 229.616,244.400 231.390,244.400 231.956 C 244.400 232.200,244.237 232.400,244.038 232.400 C 243.839 232.400,243.167 233.255,242.544 234.300 L 241.412 236.200 241.264 250.789 C 241.088 268.145,241.338 273.175,242.437 274.443 C 242.857 274.927,243.200 275.501,243.200 275.719 C 243.200 276.386,248.076 280.800,248.812 280.800 C 249.192 280.800,249.709 281.050,249.963 281.355 C 250.217 281.661,251.393 282.032,252.577 282.180 L 254.729 282.449 245.167 291.975 L 235.605 301.502 179.502 301.779 C 91.851 302.213,45.254 301.980,44.011 301.100 C 43.467 300.715,42.784 300.400,42.492 300.400 C 42.014 300.400,39.542 298.067,38.000 296.161 C 37.472 295.508,37.388 285.552,37.296 212.914 L 37.192 130.407 99.912 130.304 L 162.632 130.200 163.902 129.200 C 164.644 128.616,165.373 127.535,165.655 126.600 C 166.568 123.576,166.594 123.566,173.371 123.690 L 179.400 123.800 179.621 125.457 M67.600 149.400 C 67.050 149.714,66.113 149.978,65.518 149.986 C 63.868 150.007,58.400 154.183,58.400 155.421 C 58.400 155.693,58.130 156.018,57.800 156.145 C 57.470 156.271,57.194 156.696,57.186 157.087 C 57.179 157.479,56.825 158.520,56.400 159.400 C 55.676 160.899,55.627 162.006,55.627 177.000 C 55.627 191.994,55.676 193.101,56.400 194.600 C 56.825 195.480,57.179 196.521,57.186 196.913 C 57.194 197.304,57.470 197.729,57.800 197.855 C 58.130 197.982,58.400 198.301,58.400 198.563 C 58.400 199.057,61.711 202.400,62.199 202.400 C 62.350 202.400,62.931 202.760,63.491 203.200 C 64.050 203.640,65.002 204.000,65.605 204.000 C 66.209 204.000,67.371 204.279,68.188 204.621 C 70.144 205.438,94.832 205.330,95.661 204.500 C 95.935 204.225,96.677 204.000,97.309 204.000 C 99.364 204.000,105.200 199.674,105.200 198.150 C 105.200 197.879,105.480 197.377,105.823 197.034 C 108.043 194.814,108.087 159.327,105.873 156.881 C 105.503 156.472,105.200 155.955,105.200 155.733 C 105.200 154.534,99.373 150.000,97.831 150.000 C 97.318 150.000,96.251 149.730,95.462 149.400 C 93.397 148.537,69.109 148.537,67.600 149.400 M129.400 149.414 C 128.740 149.717,127.733 149.972,127.161 149.982 C 126.590 149.992,125.707 150.360,125.200 150.800 C 124.693 151.240,124.109 151.600,123.903 151.600 C 123.344 151.600,120.400 154.491,120.400 155.040 C 120.400 155.301,120.130 155.618,119.800 155.745 C 119.470 155.871,119.199 156.296,119.197 156.687 C 119.196 157.079,118.837 157.940,118.400 158.600 C 117.162 160.469,117.162 192.996,118.400 195.304 C 118.840 196.125,119.200 197.068,119.200 197.399 C 119.200 197.729,119.362 198.000,119.560 198.000 C 119.759 198.000,120.267 198.585,120.690 199.300 C 121.113 200.015,122.256 201.140,123.230 201.800 C 124.203 202.460,125.238 203.225,125.529 203.500 C 125.819 203.775,126.562 204.000,127.180 204.000 C 127.797 204.000,128.949 204.270,129.738 204.600 C 130.908 205.089,133.438 205.200,143.400 205.200 C 153.362 205.200,155.892 205.089,157.062 204.600 C 157.851 204.270,158.849 204.000,159.278 204.000 C 161.153 204.000,167.200 199.180,167.200 197.685 C 167.200 197.400,167.565 196.674,168.012 196.070 C 169.181 194.488,169.077 158.619,167.900 157.443 C 167.515 157.058,167.200 156.498,167.200 156.198 C 167.200 155.475,162.973 151.200,162.258 151.200 C 161.950 151.200,161.474 150.930,161.200 150.600 C 160.926 150.270,160.296 150.000,159.800 150.000 C 159.304 150.000,158.251 149.730,157.462 149.400 C 155.450 148.560,131.240 148.572,129.400 149.414 M191.254 149.416 C 190.514 149.737,189.488 150.000,188.974 150.000 C 187.152 150.000,182.426 153.820,181.319 156.188 C 181.007 156.855,180.493 157.850,180.176 158.400 C 179.221 160.056,179.522 195.180,180.500 196.157 C 180.885 196.542,181.200 197.078,181.200 197.347 C 181.200 198.261,184.912 202.393,185.737 202.398 C 185.922 202.399,186.531 202.760,187.091 203.200 C 187.650 203.640,188.603 204.000,189.208 204.000 C 189.813 204.000,190.824 204.269,191.454 204.598 C 193.148 205.481,216.549 205.483,218.662 204.600 C 219.451 204.270,220.588 204.000,221.188 204.000 C 221.787 204.000,222.693 203.640,223.200 203.200 C 223.707 202.760,224.348 202.400,224.624 202.400 C 225.457 202.400,228.694 198.500,229.798 196.168 L 230.831 193.983 230.716 176.233 C 230.613 160.494,230.526 158.399,229.947 157.742 C 229.588 157.334,229.175 156.608,229.030 156.129 C 228.440 154.191,223.139 150.000,221.278 150.000 C 220.849 150.000,219.851 149.730,219.062 149.400 C 216.982 148.531,193.261 148.544,191.254 149.416 M252.224 149.413 C 251.796 149.736,250.964 150.000,250.373 150.000 C 249.782 150.000,249.074 150.270,248.800 150.600 C 248.526 150.930,248.046 151.200,247.732 151.200 C 246.952 151.200,243.367 154.843,242.996 156.014 C 242.830 156.536,242.466 157.191,242.186 157.471 C 240.899 158.758,240.775 194.806,242.053 196.258 C 242.412 196.666,242.816 197.360,242.952 197.800 C 243.283 198.872,246.529 202.260,247.530 202.578 C 247.969 202.717,248.546 203.094,248.813 203.415 C 249.080 203.737,249.861 204.006,250.549 204.013 C 251.237 204.020,252.149 204.290,252.576 204.613 C 253.710 205.470,279.698 205.458,281.200 204.600 C 281.750 204.286,282.791 204.022,283.513 204.014 C 284.262 204.006,284.918 203.758,285.041 203.436 C 285.161 203.126,285.650 202.765,286.129 202.634 C 287.578 202.237,291.200 198.382,291.200 197.236 C 291.200 197.007,291.559 196.230,291.999 195.510 C 292.764 194.254,292.797 193.496,292.786 177.000 C 292.774 158.027,292.927 159.323,290.181 154.958 C 288.928 152.966,284.963 150.008,283.516 149.986 C 283.012 149.978,282.150 149.714,281.600 149.400 C 280.099 148.542,253.359 148.554,252.224 149.413 M98.933 151.413 C 101.763 152.853,103.693 154.717,105.125 157.392 L 106.200 159.400 106.200 177.000 C 106.200 194.546,106.197 194.605,105.293 196.237 C 103.905 198.740,101.792 201.016,99.696 202.268 L 97.800 203.400 82.276 203.518 L 66.752 203.635 64.654 202.643 C 57.454 199.237,56.809 197.130,56.809 177.000 C 56.809 158.762,57.123 157.029,61.050 153.593 C 64.899 150.224,66.101 150.039,83.400 150.145 L 96.600 150.225 98.933 151.413 M160.433 151.291 C 163.272 152.650,165.801 155.175,167.146 157.993 L 168.200 160.200 168.200 176.813 C 168.200 192.440,168.153 193.531,167.416 195.213 C 165.868 198.741,164.142 200.597,160.635 202.509 L 158.600 203.619 143.000 203.500 C 125.075 203.363,125.827 203.511,122.045 199.373 C 118.511 195.507,118.400 194.822,118.400 176.985 C 118.400 159.947,118.547 158.856,121.302 155.401 C 125.364 150.306,126.538 150.048,145.200 150.150 L 158.200 150.221 160.433 151.291 M222.182 151.215 C 229.376 154.791,230.000 156.841,230.000 176.895 C 230.000 197.166,229.387 199.217,222.331 202.555 L 220.123 203.600 205.161 203.596 L 190.200 203.592 188.115 202.621 C 185.373 201.345,182.655 198.575,181.332 195.710 L 180.266 193.400 180.108 179.600 C 179.870 158.739,180.695 155.450,187.086 151.787 C 190.792 149.663,218.163 149.217,222.182 151.215 M284.214 151.424 C 291.048 154.657,292.000 157.785,292.000 177.000 C 292.000 196.053,291.320 198.392,284.600 202.437 L 283.000 203.400 267.000 203.400 L 251.000 203.400 249.218 202.321 C 246.550 200.707,244.479 198.512,243.276 196.025 L 242.200 193.800 242.200 177.000 L 242.200 160.200 243.322 157.878 C 244.679 155.070,247.022 152.710,249.764 151.390 L 251.800 150.409 266.925 150.405 L 282.050 150.400 284.214 151.424 M69.400 161.266 C 68.029 162.064,68.012 162.253,68.006 177.038 C 68.000 190.522,68.048 191.520,68.731 192.138 C 69.379 192.724,70.872 192.800,81.662 192.800 L 93.861 192.800 94.730 191.874 C 96.062 190.457,96.072 163.600,94.742 162.000 L 93.911 161.000 82.055 160.900 C 73.597 160.829,69.971 160.934,69.400 161.266 M131.326 161.194 C 129.677 161.875,129.600 162.584,129.600 177.085 C 129.600 189.052,129.688 191.148,130.223 191.911 C 130.844 192.797,130.881 192.800,143.377 192.800 L 155.908 192.800 156.554 191.814 C 157.627 190.177,157.501 163.416,156.414 162.000 L 155.647 161.000 143.923 160.917 C 137.475 160.871,131.807 160.995,131.326 161.194 M193.200 161.146 C 191.332 161.684,191.149 163.274,191.280 177.791 C 191.379 188.681,191.505 191.158,191.996 191.900 L 192.592 192.800 205.232 192.800 L 217.872 192.800 218.336 191.781 C 219.105 190.093,218.955 162.839,218.171 161.800 C 217.538 160.963,195.811 160.393,193.200 161.146 M253.846 162.186 C 252.787 163.803,252.905 190.615,253.977 191.900 C 255.044 193.178,278.594 193.332,279.738 192.069 C 280.717 190.986,280.748 162.806,279.771 161.829 C 279.227 161.284,277.489 161.200,266.817 161.200 L 254.492 161.200 253.846 162.186 M127.240 227.352 C 126.988 227.655,126.253 228.009,125.607 228.139 C 124.327 228.395,119.200 233.279,119.200 234.243 C 119.200 234.551,118.840 235.475,118.400 236.296 C 117.637 237.720,117.600 238.552,117.600 254.519 L 117.600 271.250 118.674 273.525 C 119.265 274.776,119.940 276.006,120.174 276.258 C 120.409 276.510,121.048 277.275,121.596 277.958 C 122.143 278.641,122.728 279.200,122.896 279.200 C 123.063 279.200,123.560 279.560,124.000 280.000 C 124.440 280.440,125.138 280.800,125.551 280.800 C 125.964 280.800,126.526 281.070,126.800 281.400 C 127.521 282.269,159.248 282.307,159.967 281.439 C 160.223 281.131,160.891 280.764,161.450 280.623 C 162.865 280.268,166.574 276.543,167.790 274.258 L 168.800 272.358 168.794 254.479 C 168.789 239.641,168.690 236.430,168.211 235.600 C 167.894 235.050,167.468 234.240,167.264 233.800 C 166.822 232.846,163.907 229.600,163.491 229.600 C 163.331 229.600,162.840 229.240,162.400 228.800 C 161.960 228.360,161.262 228.000,160.849 228.000 C 160.436 228.000,159.874 227.730,159.600 227.400 C 158.885 226.539,127.953 226.493,127.240 227.352 M159.001 228.262 C 162.892 229.588,165.267 231.764,167.228 235.800 L 168.200 237.800 168.200 254.600 L 168.199 271.400 167.238 273.400 C 163.853 280.442,160.998 281.400,143.400 281.400 C 127.004 281.400,126.517 281.306,122.590 277.395 C 118.508 273.330,118.400 272.740,118.400 254.527 C 118.400 234.249,119.447 231.267,127.586 228.350 C 130.337 227.364,156.154 227.292,159.001 228.262 M60.400 228.981 C 59.850 229.289,59.090 229.637,58.711 229.754 C 57.359 230.171,55.552 233.631,55.730 235.459 C 55.930 237.497,55.439 236.902,64.500 246.108 C 68.668 250.344,72.000 254.051,72.000 254.454 C 72.000 254.860,68.795 258.381,64.700 262.474 C 57.556 269.613,56.903 270.357,55.985 272.400 C 55.091 274.389,56.780 278.549,58.684 279.047 C 59.170 279.174,59.777 279.531,60.033 279.839 C 61.844 282.022,65.009 280.049,73.969 271.148 C 81.587 263.581,81.655 263.525,82.480 264.260 C 82.938 264.667,86.496 268.195,90.389 272.100 C 94.281 276.005,97.654 279.200,97.884 279.200 C 98.114 279.200,98.526 279.470,98.800 279.800 C 99.100 280.161,99.975 280.400,101.000 280.400 C 102.025 280.400,102.900 280.161,103.200 279.800 C 103.474 279.470,103.912 279.200,104.174 279.200 C 105.177 279.200,106.707 276.994,106.948 275.200 C 107.441 271.534,107.083 270.971,99.338 263.238 C 95.412 259.318,91.864 255.733,91.452 255.271 C 90.708 254.435,90.741 254.395,98.699 246.432 C 106.462 238.664,106.700 238.378,106.937 236.517 C 107.351 233.269,105.784 229.629,103.954 229.587 C 103.649 229.580,103.051 229.310,102.624 228.987 C 100.548 227.418,98.352 228.878,89.482 237.723 C 85.139 242.055,81.587 245.293,81.376 245.114 C 81.169 244.939,77.691 241.512,73.646 237.498 C 64.957 228.876,62.924 227.568,60.400 228.981 M184.176 228.987 C 183.749 229.310,183.135 229.580,182.810 229.587 C 181.291 229.620,179.600 232.437,179.600 234.935 C 179.600 237.940,179.495 237.801,188.830 247.115 L 196.161 254.431 188.535 262.115 C 179.561 271.159,179.600 271.107,179.600 273.964 C 179.600 276.631,180.596 278.282,182.962 279.535 C 186.591 281.457,187.843 280.742,197.224 271.397 C 201.308 267.329,204.889 264.000,205.182 264.000 C 205.475 264.000,209.040 267.420,213.104 271.600 C 217.168 275.780,220.730 279.200,221.018 279.200 C 221.307 279.200,221.843 279.500,222.210 279.867 C 223.100 280.757,226.142 280.757,227.126 279.867 C 227.531 279.500,228.013 279.200,228.196 279.200 C 229.470 279.200,230.800 276.578,230.800 274.066 C 230.800 270.788,230.770 270.748,221.423 261.523 L 214.200 254.394 222.500 246.189 L 230.800 237.984 230.800 235.265 C 230.800 232.410,229.196 229.600,227.566 229.600 C 227.229 229.600,226.604 229.336,226.176 229.013 C 224.076 227.424,221.855 228.872,213.156 237.498 C 208.538 242.078,205.471 244.827,205.077 244.740 C 204.728 244.663,201.148 241.348,197.121 237.374 C 188.594 228.958,186.235 227.430,184.176 228.987 M66.476 231.900 C 67.599 232.945,71.056 236.379,74.159 239.531 C 77.261 242.683,80.297 245.524,80.904 245.844 L 82.008 246.425 89.303 239.112 C 98.387 230.006,98.404 229.992,100.978 230.028 C 104.329 230.075,105.947 231.454,106.297 234.564 C 106.582 237.088,106.033 237.824,97.627 246.196 C 93.311 250.494,90.000 254.108,90.000 254.519 C 90.000 254.929,93.476 258.732,97.988 263.258 C 104.399 269.688,106.027 271.540,106.233 272.635 C 107.021 276.835,103.958 279.806,99.671 279.002 C 98.447 278.773,96.860 277.393,90.075 270.664 C 85.605 266.229,81.868 262.524,81.772 262.432 C 81.676 262.340,77.863 265.965,73.299 270.488 C 65.761 277.956,64.845 278.736,63.308 278.989 C 60.214 279.498,58.173 278.346,57.178 275.526 C 56.152 272.619,56.795 271.650,65.614 262.806 C 70.006 258.401,73.600 254.661,73.600 254.494 C 73.600 254.328,70.079 250.684,65.776 246.396 C 56.918 237.570,55.820 235.855,57.249 233.074 C 59.219 229.239,63.088 228.747,66.476 231.900 M196.190 238.000 C 201.938 243.723,204.485 246.000,205.139 246.000 C 205.793 246.000,208.341 243.723,214.089 238.000 L 222.125 230.000 224.524 230.000 C 228.986 230.000,231.449 234.193,229.100 237.789 C 228.605 238.546,224.915 242.456,220.900 246.476 C 216.402 250.979,213.600 254.086,213.600 254.569 C 213.600 255.051,216.511 258.295,221.141 262.977 C 225.289 267.169,228.979 271.045,229.341 271.589 C 230.974 274.041,229.352 278.005,226.389 278.803 C 223.013 279.712,222.508 279.390,213.879 270.845 C 209.292 266.302,205.644 263.000,205.214 263.000 C 204.784 263.000,201.099 266.321,196.498 270.854 C 186.855 280.354,184.417 281.326,181.391 276.873 C 179.003 273.358,179.329 272.796,189.953 262.120 C 193.760 258.295,196.800 254.918,196.800 254.515 C 196.800 254.109,193.710 250.722,189.758 246.796 C 179.799 236.901,178.996 235.524,181.285 232.262 C 182.655 230.310,183.221 230.026,185.778 230.013 L 188.155 230.000 196.190 238.000 M129.976 239.864 C 129.339 241.539,129.656 269.017,130.320 269.680 C 130.724 270.084,133.607 270.200,143.255 270.200 L 155.670 270.200 156.435 269.256 C 157.500 267.941,157.628 241.190,156.577 239.689 C 155.956 238.802,155.928 238.800,143.167 238.800 L 130.380 238.800 129.976 239.864 M253.949 239.461 C 253.070 240.520,252.927 267.724,253.794 269.047 C 254.412 269.990,254.492 270.000,261.314 270.000 L 268.210 270.000 274.305 263.895 L 280.400 257.791 280.400 248.709 C 280.400 240.140,280.356 239.605,279.626 239.214 C 278.185 238.442,254.607 238.669,253.949 239.461 M221.784 336.427 C 221.639 336.661,221.628 336.961,221.760 337.093 C 221.892 337.225,222.000 337.123,222.000 336.867 C 222.000 335.679,223.710 336.649,226.288 339.300 C 227.839 340.895,230.884 343.909,233.054 345.998 C 235.224 348.087,233.942 346.692,230.204 342.898 C 223.846 336.444,222.440 335.364,221.784 336.427 M220.049 340.028 C 219.347 341.368,218.953 342.353,219.173 342.217 C 219.648 341.923,221.689 337.955,221.474 337.741 C 221.393 337.659,220.751 338.689,220.049 340.028 M218.069 343.913 C 217.131 345.834,217.102 346.234,217.998 344.906 C 218.478 344.195,218.810 343.435,218.735 343.219 C 218.661 343.003,218.361 343.315,218.069 343.913 M215.097 349.866 C 214.545 350.717,215.498 352.168,218.466 355.000 L 221.400 357.800 218.527 354.800 C 216.496 352.679,215.617 351.449,215.527 350.600 C 215.451 349.881,215.279 349.587,215.097 349.866 " stroke="none" fill="#90c7c0" fill-rule="evenodd"></path></g></svg>