<svg id="svg" version="1.1" xmlns="http://www.w3.org/2000/svg" xmlns:xlink="http://www.w3.org/1999/xlink" width="400" height="196.2466487935657" viewBox="0, 0, 400,196.2466487935657"><g id="svgg"><path id="path0" d="M47.873 6.528 C 46.207 8.124,42.739 13.887,42.058 16.192 C 41.898 16.732,41.651 17.306,41.508 17.468 C 41.365 17.630,41.114 18.469,40.950 19.333 C 40.786 20.196,40.509 21.244,40.334 21.661 C 40.114 22.184,40.019 22.976,40.028 24.213 C 40.035 25.199,40.107 63.009,40.187 108.235 L 40.334 190.463 40.824 190.600 C 41.595 190.814,50.746 190.799,51.315 190.583 L 51.821 190.390 51.720 170.220 C 51.664 159.126,51.574 140.812,51.518 129.523 L 51.418 108.996 51.833 108.620 C 52.505 108.012,92.817 107.930,93.422 108.535 C 93.813 108.926,93.817 109.146,93.817 129.159 C 93.817 144.983,93.871 149.481,94.063 149.817 C 94.254 150.150,94.320 154.707,94.362 170.354 C 94.403 185.979,94.469 190.497,94.656 190.616 C 95.129 190.917,134.567 190.808,134.818 190.505 C 135.274 189.956,134.664 42.644,134.196 40.334 C 134.021 39.470,133.869 38.410,133.859 37.978 C 133.848 37.547,133.702 36.840,133.534 36.408 C 133.366 35.976,133.058 34.981,132.850 34.196 C 132.642 33.412,132.298 32.484,132.086 32.135 C 131.873 31.787,131.698 31.369,131.697 31.207 C 131.696 31.045,131.553 30.648,131.378 30.324 C 131.203 30.000,130.794 29.205,130.469 28.557 C 127.873 23.393,121.123 15.350,117.456 13.052 C 116.376 12.375,114.413 11.112,113.568 10.550 C 113.122 10.253,112.404 9.914,111.973 9.796 C 111.541 9.678,111.042 9.451,110.864 9.292 C 110.686 9.133,110.112 8.890,109.588 8.750 C 109.064 8.611,108.284 8.308,107.854 8.076 C 107.424 7.844,106.874 7.655,106.633 7.655 C 106.392 7.655,105.528 7.437,104.713 7.171 C 101.245 6.039,97.127 5.867,71.236 5.770 L 48.752 5.685 47.873 6.528 M19.356 22.000 C 17.552 24.295,16.292 26.112,16.291 26.417 C 16.291 26.535,16.127 26.780,15.928 26.960 C 15.729 27.140,15.465 27.625,15.341 28.038 C 15.217 28.450,14.936 28.995,14.717 29.249 C 14.497 29.502,14.265 29.936,14.201 30.213 C 14.137 30.490,13.885 31.070,13.641 31.501 C 13.397 31.933,13.133 32.672,13.054 33.143 C 12.976 33.614,12.707 34.453,12.457 35.007 C 12.207 35.562,11.941 36.634,11.866 37.390 C 11.791 38.145,11.622 39.028,11.490 39.352 C 10.795 41.057,10.761 43.406,10.877 81.943 C 10.940 102.669,11.036 135.586,11.092 155.091 L 11.193 190.556 12.025 190.681 C 13.358 190.880,20.954 190.706,21.189 190.470 C 21.334 190.325,21.366 178.030,21.297 149.743 C 20.977 19.467,20.976 25.864,21.307 23.399 C 21.678 20.633,21.682 20.395,21.354 20.187 C 20.964 19.940,21.001 19.907,19.356 22.000 M78.803 26.368 C 81.193 27.114,84.414 28.735,85.859 29.918 C 87.626 31.366,91.462 36.052,91.462 36.763 C 91.462 36.858,91.637 37.157,91.850 37.428 C 92.063 37.698,92.296 38.242,92.367 38.636 C 92.439 39.030,92.695 39.750,92.937 40.236 C 93.777 41.922,93.850 44.201,93.782 66.579 L 93.719 87.330 93.272 87.777 L 92.825 88.224 73.155 88.283 C 51.639 88.347,52.177 88.373,51.702 87.236 C 51.282 86.231,51.302 44.446,51.723 43.278 C 51.879 42.846,52.100 41.963,52.215 41.315 C 52.406 40.246,52.664 39.563,53.663 37.488 C 54.921 34.876,57.839 31.232,59.961 29.625 C 61.172 28.707,64.602 26.938,65.495 26.771 C 65.858 26.703,66.793 26.437,67.572 26.181 C 69.784 25.453,76.217 25.561,78.803 26.368 M333.170 71.063 C 332.414 71.152,330.604 71.322,329.146 71.441 C 325.119 71.768,316.711 73.475,313.117 74.694 C 312.343 74.957,311.504 75.175,311.253 75.178 C 311.001 75.181,310.267 75.446,309.622 75.767 C 308.977 76.087,308.344 76.349,308.214 76.349 C 307.592 76.349,304.851 77.647,303.823 78.429 C 303.188 78.912,302.380 79.408,302.027 79.531 C 301.674 79.654,300.679 80.225,299.815 80.800 C 298.952 81.375,298.168 81.845,298.074 81.845 C 297.980 81.845,297.668 82.025,297.381 82.246 C 297.094 82.467,296.374 82.968,295.780 83.360 C 291.923 85.907,283.558 94.064,282.237 96.565 C 282.094 96.835,281.617 97.541,281.175 98.133 C 280.326 99.273,280.198 99.505,277.987 103.888 C 275.998 107.832,275.564 108.769,275.564 109.119 C 275.564 109.288,275.392 109.747,275.182 110.139 C 274.973 110.531,274.664 111.378,274.498 112.021 C 274.331 112.664,274.063 113.505,273.902 113.890 C 272.334 117.643,271.142 126.629,271.293 133.562 C 271.437 140.185,271.752 142.779,273.140 148.773 C 273.497 150.314,274.719 154.334,275.079 155.152 C 275.485 156.074,276.358 158.215,276.672 159.059 C 276.829 159.480,277.164 160.187,277.418 160.629 C 277.671 161.071,277.945 161.652,278.025 161.920 C 278.170 162.404,278.264 162.561,279.455 164.311 C 279.798 164.814,280.081 165.300,280.084 165.390 C 280.087 165.481,280.488 166.129,280.974 166.830 C 281.461 167.532,282.007 168.327,282.187 168.597 C 283.479 170.534,288.575 176.252,289.612 176.928 C 289.928 177.133,290.849 177.901,291.658 178.633 C 294.774 181.450,301.346 185.593,303.827 186.305 C 304.205 186.413,304.735 186.656,305.005 186.845 C 305.275 187.034,305.820 187.293,306.216 187.421 C 306.612 187.550,307.042 187.782,307.171 187.938 C 307.300 188.094,307.771 188.314,308.217 188.428 C 309.373 188.723,310.108 189.030,310.108 189.220 C 310.108 189.310,310.439 189.442,310.844 189.513 C 311.249 189.585,312.110 189.847,312.758 190.095 C 313.405 190.344,314.465 190.649,315.113 190.773 C 315.761 190.897,316.786 191.165,317.393 191.368 C 317.999 191.571,319.235 191.831,320.140 191.944 C 321.045 192.058,322.184 192.278,322.669 192.434 C 326.693 193.726,352.049 193.591,356.133 192.256 C 356.565 192.115,357.625 191.941,358.489 191.869 C 359.352 191.796,360.500 191.612,361.040 191.459 C 361.580 191.306,363.431 191.037,365.154 190.861 C 367.071 190.665,368.654 190.396,369.233 190.168 C 369.753 189.963,370.868 189.718,371.711 189.624 C 372.554 189.529,373.457 189.316,373.717 189.149 C 373.977 188.982,374.911 188.712,375.792 188.549 C 376.673 188.386,377.648 188.120,377.959 187.959 C 378.270 187.799,379.095 187.565,379.792 187.440 C 380.490 187.316,381.258 187.086,381.500 186.930 C 381.743 186.774,382.493 186.506,383.169 186.334 C 383.844 186.163,384.485 185.953,384.593 185.868 C 384.701 185.782,385.496 185.472,386.359 185.177 C 389.085 184.247,389.990 183.466,389.583 182.396 C 389.484 182.135,389.307 180.491,389.189 178.743 C 389.071 176.995,388.881 174.637,388.766 173.503 C 388.503 170.925,388.504 162.580,388.767 160.353 C 388.875 159.436,389.066 157.596,389.192 156.265 C 389.480 153.214,389.961 151.998,391.200 151.192 C 391.668 150.887,392.139 150.568,392.247 150.483 C 392.355 150.398,393.117 149.892,393.941 149.359 C 395.570 148.304,395.675 148.124,395.679 146.393 C 395.684 144.654,394.651 144.415,389.799 145.030 C 387.767 145.287,373.562 145.300,371.639 145.046 C 368.681 144.656,354.741 144.554,354.184 144.919 C 353.527 145.350,353.410 148.272,354.028 148.831 C 354.647 149.392,357.721 149.765,364.769 150.134 C 369.152 150.364,372.190 150.905,372.860 151.575 C 373.936 152.651,374.115 154.932,374.021 166.396 C 373.908 180.172,373.827 180.836,372.186 181.360 C 371.777 181.491,370.427 181.976,369.185 182.439 C 366.539 183.427,363.146 184.497,362.667 184.496 C 362.482 184.495,361.893 184.667,361.359 184.878 C 360.825 185.088,359.607 185.358,358.653 185.477 C 357.699 185.596,356.344 185.859,355.643 186.060 C 351.576 187.228,335.185 187.366,331.357 186.265 C 330.951 186.148,329.823 185.885,328.850 185.680 C 324.346 184.732,317.960 182.070,314.444 179.674 C 313.661 179.141,312.688 178.484,312.282 178.214 C 311.876 177.944,311.281 177.547,310.960 177.331 C 306.013 174.006,298.573 165.653,296.100 160.648 C 295.780 160.000,295.358 159.262,295.163 159.009 C 294.969 158.755,294.753 158.250,294.685 157.887 C 294.617 157.524,294.443 157.129,294.298 157.009 C 294.154 156.888,293.898 156.377,293.729 155.873 C 293.561 155.369,293.203 154.521,292.934 153.990 C 292.664 153.459,292.444 152.902,292.444 152.751 C 292.444 152.601,292.229 152.020,291.968 151.460 C 291.706 150.900,291.428 150.005,291.351 149.471 C 291.273 148.937,291.053 148.142,290.861 147.704 C 290.670 147.267,290.375 146.158,290.207 145.240 C 290.040 144.323,289.778 143.131,289.627 142.591 C 288.281 137.801,288.315 120.673,289.678 115.996 C 289.882 115.294,290.152 114.110,290.277 113.364 C 290.401 112.618,290.645 111.735,290.819 111.401 C 290.993 111.068,291.254 110.229,291.400 109.536 C 291.546 108.844,291.831 108.005,292.034 107.672 C 292.236 107.338,292.461 106.783,292.534 106.437 C 292.607 106.091,292.829 105.602,293.027 105.351 C 293.225 105.099,293.492 104.499,293.621 104.017 C 293.749 103.535,293.967 103.008,294.106 102.846 C 294.245 102.684,294.545 102.154,294.774 101.668 C 296.659 97.666,299.886 93.405,304.512 88.813 C 306.583 86.756,312.426 82.861,314.230 82.334 C 314.500 82.256,314.853 82.081,315.015 81.946 C 315.286 81.720,316.067 81.425,318.646 80.573 C 319.185 80.395,320.069 80.082,320.608 79.878 C 321.148 79.674,322.399 79.369,323.389 79.201 C 324.379 79.032,325.506 78.762,325.894 78.600 C 326.282 78.437,327.990 78.169,329.689 78.004 C 331.387 77.839,333.062 77.573,333.409 77.413 C 334.362 76.974,348.922 77.109,351.325 77.579 C 352.242 77.759,353.974 77.993,355.172 78.100 C 356.445 78.214,357.760 78.456,358.337 78.683 C 358.879 78.897,359.886 79.132,360.574 79.205 C 361.262 79.278,362.215 79.506,362.690 79.711 C 363.166 79.916,363.917 80.137,364.359 80.202 C 364.800 80.267,365.471 80.497,365.849 80.714 C 366.488 81.079,367.532 81.473,370.448 82.448 C 371.088 82.662,371.716 82.924,371.843 83.029 C 371.970 83.135,372.593 83.399,373.227 83.617 C 373.861 83.836,375.388 84.562,376.621 85.231 C 381.350 87.798,381.573 88.295,381.701 96.565 C 381.808 103.469,381.669 103.042,383.800 103.042 C 386.323 103.042,386.468 102.729,386.943 96.271 C 387.102 94.112,387.366 91.904,387.531 91.364 C 387.696 90.824,387.922 89.353,388.034 88.094 C 388.146 86.835,388.370 85.334,388.532 84.757 C 388.695 84.181,388.924 83.047,389.041 82.237 C 389.158 81.428,389.361 80.305,389.492 79.743 L 389.729 78.721 389.144 78.516 C 388.821 78.404,388.395 78.312,388.195 78.312 C 387.996 78.312,387.325 78.139,386.703 77.926 C 386.082 77.714,384.956 77.444,384.200 77.327 C 383.445 77.209,382.626 76.982,382.380 76.822 C 382.135 76.662,381.428 76.440,380.810 76.330 C 380.192 76.219,379.068 75.922,378.312 75.669 C 377.556 75.416,376.452 75.146,375.859 75.069 C 375.265 74.992,374.514 74.793,374.190 74.627 C 373.867 74.460,372.630 74.121,371.443 73.873 C 370.255 73.625,368.224 73.192,366.928 72.910 C 365.633 72.629,363.885 72.273,363.045 72.120 C 362.205 71.967,361.349 71.751,361.143 71.641 C 360.080 71.072,337.119 70.598,333.170 71.063 M213.739 72.274 C 212.390 72.366,201.750 72.485,190.096 72.538 C 165.547 72.649,168.129 72.369,168.235 74.908 C 168.322 76.989,167.877 76.826,173.765 76.938 C 178.563 77.030,178.959 77.065,179.784 77.471 C 180.270 77.711,181.038 78.000,181.491 78.114 C 182.464 78.359,183.013 78.982,183.397 80.277 C 183.549 80.788,183.817 81.483,183.991 81.821 C 185.175 84.109,185.430 92.872,185.431 131.207 C 185.432 161.559,185.276 170.069,184.534 180.177 C 184.092 186.205,182.251 187.425,173.583 187.434 C 167.862 187.440,168.159 187.303,168.245 189.884 L 168.302 191.593 192.923 191.576 C 212.360 191.563,217.577 191.508,217.699 191.314 C 217.785 191.180,217.856 190.439,217.858 189.668 C 217.863 187.378,218.036 187.454,212.659 187.388 C 202.303 187.261,201.630 186.482,201.183 174.092 C 201.091 171.555,200.924 169.082,200.811 168.597 C 200.469 167.126,200.513 94.144,200.856 93.464 C 201.053 93.074,201.157 91.460,201.251 87.341 C 201.403 80.680,201.398 80.712,202.333 80.351 C 202.723 80.200,203.301 79.940,203.618 79.772 C 203.935 79.604,204.950 79.376,205.875 79.265 C 206.800 79.154,208.395 78.845,209.421 78.578 C 212.798 77.701,227.896 77.709,229.661 78.589 C 229.977 78.746,230.909 78.978,231.732 79.102 C 234.708 79.553,239.484 81.800,241.119 83.517 C 244.847 87.433,245.418 88.144,246.595 90.331 C 251.136 98.765,249.985 113.617,244.256 120.510 C 240.707 124.782,236.270 127.684,231.183 129.062 L 228.597 129.763 223.278 129.693 C 218.254 129.628,217.850 129.595,215.996 129.101 C 211.511 127.904,210.961 128.074,211.956 130.348 C 212.163 130.820,212.394 131.716,212.469 132.338 C 212.637 133.712,212.543 133.651,214.824 133.867 C 216.056 133.984,216.997 134.193,217.615 134.490 C 219.061 135.182,232.482 135.183,234.116 134.490 C 234.691 134.247,235.790 133.958,236.559 133.849 C 237.329 133.740,238.095 133.528,238.263 133.378 C 238.430 133.228,239.097 132.965,239.745 132.795 C 240.887 132.495,242.357 131.820,243.768 130.946 C 244.146 130.713,244.571 130.521,244.713 130.521 C 245.450 130.519,250.789 127.313,252.518 125.835 C 252.850 125.551,253.453 125.054,253.857 124.730 C 254.887 123.907,256.049 122.758,257.311 121.315 C 257.905 120.637,258.530 119.936,258.701 119.756 C 259.730 118.679,262.331 114.629,263.197 112.758 C 263.546 112.002,263.988 111.075,264.179 110.697 C 264.369 110.319,264.587 109.661,264.664 109.234 C 264.740 108.807,264.962 108.145,265.157 107.762 C 265.366 107.353,265.641 106.014,265.825 104.514 C 265.997 103.111,266.227 101.654,266.337 101.277 C 266.631 100.262,266.579 96.693,266.251 95.416 C 266.095 94.807,265.878 93.592,265.770 92.716 C 265.643 91.696,265.393 90.787,265.073 90.184 C 264.798 89.668,264.573 89.126,264.573 88.980 C 264.573 88.607,263.122 85.920,262.074 84.353 C 260.759 82.387,255.973 77.659,255.003 77.368 C 254.581 77.241,254.074 76.960,253.878 76.744 C 253.682 76.527,253.380 76.349,253.208 76.349 C 253.036 76.349,252.365 76.093,251.717 75.780 C 250.050 74.973,248.003 74.234,246.516 73.902 C 245.815 73.745,244.490 73.445,243.572 73.236 C 242.655 73.026,240.976 72.757,239.843 72.637 C 238.710 72.517,237.164 72.335,236.408 72.232 C 234.749 72.005,217.187 72.038,213.739 72.274 " stroke="none" fill="#09bdec" fill-rule="evenodd"></path><path id="path1" d="M0.000 98.135 L 0.000 196.271 200.000 196.271 L 400.000 196.271 400.000 98.135 L 400.000 0.000 200.000 0.000 L 0.000 0.000 0.000 98.135 M100.491 5.286 C 101.516 5.525,103.096 5.839,104.001 5.983 C 104.957 6.136,105.861 6.404,106.160 6.624 C 106.442 6.831,107.094 7.058,107.608 7.128 C 108.122 7.198,108.961 7.478,109.471 7.749 C 109.982 8.021,110.542 8.243,110.717 8.243 C 110.892 8.243,111.366 8.468,111.771 8.743 C 112.177 9.019,112.757 9.293,113.061 9.354 C 113.365 9.415,113.798 9.637,114.024 9.847 C 114.250 10.058,114.754 10.363,115.144 10.526 C 115.911 10.847,116.706 11.369,117.720 12.218 C 118.075 12.515,118.469 12.758,118.597 12.758 C 118.724 12.758,119.008 12.933,119.228 13.147 C 119.447 13.361,120.220 14.027,120.946 14.626 C 121.671 15.225,122.378 15.877,122.516 16.073 C 122.654 16.270,123.401 17.128,124.176 17.980 C 126.406 20.434,127.448 21.788,129.669 25.123 C 130.586 26.500,130.890 27.050,131.098 27.708 C 131.223 28.104,131.442 28.525,131.585 28.644 C 131.728 28.762,131.960 29.277,132.101 29.788 C 132.242 30.299,132.513 30.937,132.704 31.207 C 132.894 31.477,133.142 32.220,133.256 32.859 C 133.370 33.498,133.604 34.176,133.775 34.366 C 133.960 34.570,134.193 35.461,134.344 36.547 C 134.485 37.557,134.763 38.734,134.961 39.162 C 135.306 39.908,135.326 41.842,135.445 84.593 C 135.704 178.030,135.679 190.523,135.228 190.974 C 134.661 191.541,94.651 191.502,93.784 190.934 L 93.277 190.602 93.145 150.208 C 93.072 127.991,92.965 109.571,92.908 109.274 L 92.805 108.734 72.894 108.734 L 52.983 108.734 52.772 109.274 C 52.623 109.657,52.602 121.499,52.702 150.049 L 52.843 190.285 52.445 190.775 L 52.046 191.266 46.050 191.266 C 40.949 191.266,40.009 191.221,39.755 190.968 C 39.439 190.651,39.259 22.203,39.574 20.608 C 39.649 20.231,39.839 19.721,39.997 19.477 C 40.155 19.232,40.409 18.442,40.560 17.720 C 40.711 16.998,40.955 16.271,41.102 16.104 C 41.249 15.937,41.432 15.507,41.508 15.149 C 41.679 14.344,43.541 10.738,44.632 9.098 C 46.595 6.146,47.143 5.499,48.062 5.050 C 49.294 4.447,97.831 4.666,100.491 5.286 M41.786 6.399 C 42.199 6.923,41.941 8.047,41.408 8.047 C 41.303 8.047,41.217 8.163,41.217 8.305 C 41.217 8.447,40.952 8.816,40.628 9.127 C 40.304 9.437,40.039 9.800,40.039 9.933 C 40.039 10.067,39.831 10.426,39.577 10.731 C 39.323 11.036,39.010 11.606,38.883 11.998 C 38.755 12.390,38.477 12.867,38.265 13.059 C 38.054 13.250,37.880 13.594,37.880 13.821 C 37.880 14.049,37.626 14.764,37.315 15.410 C 37.004 16.056,36.686 17.026,36.609 17.566 C 36.532 18.106,36.279 18.945,36.046 19.431 L 35.623 20.314 35.524 105.594 C 35.469 152.498,35.403 190.887,35.377 190.903 C 34.840 191.238,33.500 191.364,30.494 191.364 L 26.895 191.364 26.303 190.824 L 25.710 190.285 25.702 106.133 C 25.695 30.775,25.725 21.914,25.996 21.344 C 26.162 20.993,26.385 20.016,26.492 19.171 C 26.609 18.252,26.836 17.424,27.058 17.110 C 27.262 16.821,27.493 16.276,27.570 15.898 C 27.648 15.520,27.918 14.902,28.171 14.524 C 28.424 14.146,28.694 13.572,28.771 13.248 C 28.848 12.924,29.119 12.410,29.372 12.105 C 29.626 11.800,29.833 11.471,29.833 11.374 C 29.833 10.978,31.608 9.450,32.224 9.316 C 32.582 9.238,33.125 8.965,33.430 8.709 C 33.735 8.453,34.102 8.243,34.244 8.243 C 34.387 8.243,35.008 7.978,35.623 7.655 C 36.239 7.331,36.966 7.066,37.239 7.066 C 37.512 7.066,38.038 6.879,38.408 6.650 C 38.777 6.422,39.539 6.168,40.099 6.086 C 40.660 6.004,41.179 5.926,41.252 5.913 C 41.325 5.899,41.565 6.118,41.786 6.399 M22.973 19.111 C 22.355 20.738,22.332 24.773,22.475 107.782 L 22.618 190.539 22.063 190.903 C 21.179 191.482,11.188 191.456,10.619 190.873 C 10.241 190.486,10.235 189.555,10.172 115.702 C 10.104 36.150,10.070 39.400,10.996 37.095 C 11.191 36.609,11.402 35.781,11.465 35.254 C 11.528 34.727,11.754 34.014,11.967 33.670 C 12.180 33.325,12.455 32.563,12.578 31.978 C 12.701 31.392,12.923 30.774,13.072 30.606 C 13.220 30.437,13.444 29.995,13.570 29.624 C 13.696 29.253,13.965 28.711,14.169 28.419 C 14.372 28.127,14.636 27.597,14.755 27.241 C 14.874 26.886,15.127 26.418,15.318 26.202 C 15.508 25.986,15.800 25.478,15.967 25.074 C 16.134 24.669,16.357 24.338,16.464 24.338 C 16.570 24.338,16.708 24.177,16.770 23.980 C 17.095 22.955,20.560 18.813,21.455 18.380 C 22.317 17.962,23.241 18.407,22.973 19.111 M67.877 27.179 C 65.232 27.659,59.078 30.870,59.078 31.771 C 59.078 31.846,58.378 32.655,57.522 33.569 C 55.222 36.026,55.214 36.036,55.080 36.571 C 55.012 36.843,54.748 37.315,54.494 37.620 C 54.239 37.925,53.968 38.520,53.890 38.943 C 53.812 39.365,53.512 40.160,53.224 40.709 L 52.699 41.708 52.643 64.033 C 52.603 79.634,52.650 86.477,52.797 86.751 C 53.091 87.302,92.180 87.380,92.729 86.831 C 93.013 86.547,93.037 84.428,92.988 64.309 L 92.934 42.100 92.500 41.491 C 92.260 41.155,92.008 40.493,91.938 40.019 C 91.868 39.544,91.600 38.827,91.342 38.424 C 91.084 38.022,90.873 37.634,90.873 37.563 C 90.873 37.308,89.133 34.823,88.416 34.053 C 88.013 33.621,87.344 32.883,86.929 32.412 C 82.960 27.916,75.347 25.825,67.877 27.179 M360.648 70.347 C 362.159 70.646,363.970 71.053,364.671 71.252 C 365.373 71.451,366.344 71.673,366.830 71.746 C 368.096 71.937,373.516 73.252,376.808 74.169 C 379.637 74.956,380.959 75.360,383.317 76.153 C 384.019 76.389,385.350 76.705,386.276 76.856 C 388.221 77.171,390.490 78.116,390.671 78.686 C 390.794 79.072,390.285 81.381,389.997 81.747 C 389.912 81.855,389.739 82.949,389.613 84.178 C 389.482 85.456,389.244 86.675,389.059 87.024 C 388.838 87.442,388.659 88.631,388.493 90.784 C 388.355 92.571,388.113 94.311,387.934 94.808 C 387.726 95.383,387.554 96.875,387.434 99.168 C 387.175 104.077,386.963 104.337,383.358 104.189 C 380.756 104.082,380.766 104.102,380.764 98.762 C 380.760 90.568,380.130 88.260,377.527 86.905 C 377.203 86.736,376.408 86.312,375.761 85.963 C 375.113 85.614,373.876 85.041,373.013 84.690 C 372.149 84.339,370.985 83.832,370.426 83.562 C 369.867 83.292,369.072 83.010,368.660 82.934 C 368.247 82.859,367.541 82.583,367.090 82.321 C 366.639 82.059,366.170 81.845,366.049 81.845 C 365.927 81.845,365.503 81.624,365.106 81.354 C 364.709 81.084,364.117 80.863,363.792 80.862 C 362.978 80.861,361.696 80.491,361.308 80.147 C 361.116 79.976,360.213 79.782,359.061 79.665 C 358.001 79.556,356.601 79.288,355.948 79.068 C 352.838 78.020,330.145 78.011,327.935 79.057 C 327.424 79.298,326.313 79.539,325.148 79.661 C 323.889 79.793,323.090 79.973,322.865 80.177 C 322.675 80.349,321.914 80.584,321.174 80.699 C 320.433 80.815,319.623 81.070,319.372 81.267 C 319.121 81.464,318.428 81.727,317.832 81.851 C 317.235 81.975,316.433 82.289,316.050 82.549 C 315.666 82.810,315.193 83.023,314.999 83.023 C 314.804 83.023,314.594 83.106,314.531 83.208 C 314.468 83.310,313.601 83.845,312.605 84.397 C 311.610 84.948,310.397 85.657,309.912 85.971 C 309.426 86.284,308.763 86.689,308.440 86.870 C 308.116 87.051,307.542 87.452,307.164 87.761 C 306.786 88.070,306.233 88.521,305.934 88.764 C 305.045 89.487,303.631 90.873,303.628 91.026 C 303.626 91.104,303.087 91.742,302.431 92.444 C 301.381 93.566,300.717 94.374,299.219 96.348 C 299.005 96.629,298.762 96.889,298.679 96.925 C 298.596 96.961,298.528 97.074,298.528 97.175 C 298.528 97.365,297.480 99.009,296.770 99.933 C 296.549 100.220,296.369 100.539,296.369 100.642 C 296.369 100.745,296.104 101.163,295.780 101.570 C 295.456 101.978,295.191 102.469,295.191 102.662 C 295.191 102.854,294.984 103.262,294.731 103.567 C 294.477 103.872,294.209 104.387,294.135 104.711 C 293.933 105.592,293.594 106.379,293.415 106.379 C 293.328 106.379,293.149 106.887,293.016 107.507 C 292.884 108.128,292.623 108.901,292.436 109.225 C 292.249 109.549,291.992 110.432,291.865 111.187 C 291.738 111.943,291.502 112.765,291.340 113.014 C 291.178 113.263,290.913 114.500,290.751 115.762 C 290.590 117.024,290.328 118.499,290.170 119.038 C 289.323 121.931,289.327 136.522,290.175 139.439 C 290.336 139.993,290.560 141.282,290.672 142.304 C 290.922 144.580,291.044 145.196,291.372 145.837 C 291.512 146.112,291.721 147.019,291.837 147.854 C 291.953 148.689,292.188 149.585,292.359 149.845 C 292.529 150.106,292.798 150.873,292.956 151.551 C 293.114 152.228,293.365 152.918,293.513 153.084 C 293.661 153.250,293.927 153.886,294.103 154.498 C 294.280 155.109,294.552 155.716,294.708 155.845 C 294.865 155.975,295.089 156.440,295.207 156.879 C 295.325 157.318,295.635 157.990,295.895 158.374 C 296.156 158.757,296.369 159.129,296.369 159.202 C 296.369 159.274,296.721 159.893,297.152 160.579 C 297.583 161.264,298.116 162.134,298.337 162.512 C 298.558 162.890,299.003 163.553,299.326 163.984 C 299.649 164.416,300.061 164.990,300.240 165.260 C 301.342 166.916,307.531 173.690,308.667 174.485 C 308.899 174.647,309.616 175.190,310.262 175.692 C 310.907 176.194,311.645 176.715,311.900 176.850 C 312.156 176.985,312.409 177.158,312.463 177.236 C 312.517 177.313,312.931 177.563,313.382 177.792 C 313.834 178.021,314.259 178.299,314.328 178.410 C 314.396 178.521,314.806 178.810,315.239 179.051 C 315.671 179.292,316.438 179.731,316.943 180.025 C 317.870 180.566,318.051 180.657,319.823 181.464 C 322.537 182.700,328.286 184.570,330.641 184.983 C 331.517 185.136,333.151 185.449,334.272 185.677 C 336.937 186.221,350.061 186.182,352.306 185.624 C 353.008 185.450,355.083 185.032,356.919 184.695 C 358.754 184.358,360.608 183.961,361.040 183.812 C 361.472 183.663,362.313 183.444,362.908 183.326 C 363.503 183.208,364.229 182.988,364.520 182.837 C 364.811 182.686,365.560 182.457,366.185 182.328 C 366.810 182.199,367.630 181.937,368.008 181.746 C 368.386 181.554,369.136 181.264,369.676 181.100 C 370.216 180.936,371.151 180.580,371.755 180.310 L 372.852 179.817 372.981 176.709 C 373.158 172.428,373.127 157.154,372.935 154.779 C 372.726 152.183,372.347 151.816,369.680 151.626 C 366.295 151.384,363.782 151.095,362.807 150.835 C 362.233 150.682,360.209 150.530,357.931 150.469 C 352.776 150.331,352.699 150.280,352.699 147.007 C 352.699 143.536,352.810 143.476,359.150 143.475 C 362.674 143.474,364.483 143.561,366.020 143.804 C 368.907 144.260,389.654 144.324,391.364 143.882 C 395.029 142.934,396.860 143.778,396.860 146.415 C 396.860 148.369,396.426 149.012,394.254 150.277 C 391.828 151.689,390.875 152.716,390.607 154.210 C 390.476 154.944,390.217 155.986,390.032 156.526 C 389.452 158.219,389.531 176.887,390.127 179.195 C 391.274 183.634,390.799 185.038,387.936 185.673 C 387.399 185.792,386.693 186.051,386.365 186.248 C 386.038 186.445,385.417 186.669,384.985 186.746 C 384.553 186.823,383.759 187.089,383.219 187.338 C 382.679 187.587,381.798 187.852,381.261 187.928 C 380.724 188.003,379.973 188.223,379.592 188.417 C 379.212 188.610,378.283 188.865,377.527 188.982 C 376.771 189.099,375.817 189.367,375.406 189.577 C 374.977 189.796,374.018 190.015,373.149 190.091 C 372.254 190.169,371.319 190.385,370.854 190.622 C 370.422 190.841,369.230 191.133,368.204 191.270 C 367.179 191.407,365.986 191.657,365.554 191.826 C 365.123 191.994,364.302 192.136,363.731 192.141 C 361.810 192.156,358.889 192.560,357.806 192.959 C 357.047 193.238,355.881 193.409,353.846 193.538 C 352.260 193.638,350.271 193.867,349.426 194.047 C 346.492 194.673,330.081 194.669,326.644 194.043 C 325.160 193.772,323.081 193.456,322.024 193.340 C 320.967 193.224,319.783 192.996,319.392 192.833 C 319.001 192.669,318.055 192.440,317.290 192.323 C 316.524 192.206,315.589 191.944,315.211 191.740 C 314.833 191.537,313.960 191.284,313.271 191.178 C 312.582 191.072,311.875 190.860,311.701 190.707 C 311.526 190.554,310.854 190.278,310.206 190.094 C 309.558 189.909,308.896 189.642,308.734 189.500 C 308.572 189.358,308.042 189.137,307.556 189.009 C 307.071 188.881,306.536 188.654,306.369 188.505 C 306.202 188.356,305.673 188.096,305.195 187.927 C 304.716 187.758,304.132 187.494,303.898 187.340 C 303.663 187.187,303.043 186.958,302.521 186.833 C 301.998 186.707,301.349 186.462,301.079 186.289 C 300.810 186.115,300.280 185.817,299.902 185.625 C 298.954 185.145,296.012 183.313,295.486 182.876 C 295.378 182.786,294.583 182.183,293.719 181.536 C 291.191 179.641,291.066 179.541,289.821 178.410 C 288.410 177.128,285.325 174.030,284.495 173.061 C 282.131 170.303,282.286 170.512,280.112 167.140 C 279.770 166.609,279.490 166.072,279.490 165.948 C 279.490 165.823,279.269 165.514,278.999 165.260 C 278.729 165.007,278.508 164.689,278.508 164.554 C 278.508 164.419,278.303 164.059,278.053 163.754 C 276.439 161.788,272.839 153.021,272.223 149.560 C 272.099 148.859,271.877 147.998,271.730 147.646 C 271.582 147.294,271.365 146.127,271.247 145.052 C 271.129 143.977,270.939 142.587,270.825 141.961 C 270.711 141.336,270.538 140.383,270.441 139.843 C 269.904 136.867,270.057 125.863,270.663 123.945 C 270.765 123.621,270.980 122.231,271.140 120.855 C 271.300 119.480,271.556 118.111,271.710 117.813 C 271.863 117.515,272.088 116.623,272.211 115.830 C 272.333 115.037,272.560 114.143,272.715 113.843 C 272.871 113.543,273.169 112.690,273.379 111.948 C 274.022 109.676,276.002 105.171,277.511 102.552 C 277.821 102.012,278.251 101.206,278.466 100.761 C 278.681 100.316,278.947 99.896,279.058 99.828 C 279.169 99.759,279.452 99.306,279.686 98.821 C 279.921 98.336,280.188 97.939,280.279 97.939 C 280.370 97.939,280.498 97.770,280.564 97.564 C 280.629 97.357,280.922 96.875,281.215 96.491 C 281.507 96.108,282.055 95.371,282.432 94.855 C 284.303 92.291,289.724 86.650,291.729 85.182 C 292.245 84.804,292.959 84.252,293.317 83.955 C 293.675 83.658,294.032 83.415,294.112 83.415 C 294.191 83.415,294.552 83.172,294.913 82.875 C 296.120 81.883,296.655 81.521,298.037 80.762 C 298.793 80.347,299.615 79.852,299.865 79.662 C 300.115 79.471,300.633 79.212,301.016 79.086 C 301.400 78.959,301.858 78.728,302.034 78.572 C 302.492 78.168,304.684 76.743,304.849 76.742 C 304.925 76.742,305.313 76.521,305.711 76.251 C 306.108 75.981,306.674 75.761,306.967 75.761 C 307.261 75.761,307.977 75.510,308.559 75.203 C 310.508 74.176,318.327 71.895,321.099 71.544 C 321.693 71.469,322.620 71.285,323.160 71.135 C 323.700 70.985,325.124 70.772,326.325 70.661 C 327.526 70.549,328.939 70.363,329.465 70.246 C 331.422 69.811,334.442 69.723,346.026 69.763 L 357.900 69.804 360.648 70.347 M238.077 71.203 C 238.562 71.320,240.064 71.564,241.413 71.744 C 246.315 72.400,250.004 73.598,254.073 75.857 C 254.612 76.157,255.396 76.574,255.815 76.785 C 256.233 76.995,257.034 77.624,257.595 78.181 C 258.156 78.739,259.431 79.979,260.429 80.938 C 262.044 82.490,263.984 84.990,263.984 85.520 C 263.984 85.627,264.204 86.039,264.473 86.435 C 264.741 86.831,265.018 87.395,265.087 87.689 C 265.157 87.983,265.415 88.665,265.661 89.205 C 265.907 89.745,266.170 90.672,266.247 91.266 C 266.324 91.860,266.559 92.686,266.770 93.101 C 267.529 94.598,267.449 103.122,266.659 105.014 C 266.502 105.389,266.277 106.393,266.158 107.244 C 266.040 108.096,265.778 109.067,265.576 109.401 C 265.375 109.736,265.148 110.355,265.073 110.778 C 264.858 111.985,262.967 115.727,261.743 117.370 C 261.300 117.964,260.796 118.670,260.622 118.940 C 259.643 120.460,253.518 126.587,252.012 127.552 C 251.742 127.725,251.139 128.155,250.672 128.506 C 250.205 128.858,249.697 129.146,249.543 129.146 C 249.390 129.146,249.264 129.220,249.264 129.309 C 249.264 129.399,249.021 129.596,248.724 129.747 C 248.427 129.898,247.875 130.214,247.498 130.449 C 247.120 130.684,246.522 130.936,246.169 131.009 C 245.564 131.134,243.581 132.088,242.563 132.744 C 242.309 132.908,241.747 133.104,241.315 133.179 C 240.883 133.254,240.246 133.487,239.899 133.696 C 239.551 133.906,238.668 134.169,237.936 134.281 C 237.204 134.393,236.322 134.656,235.977 134.867 C 235.519 135.147,234.739 135.299,233.072 135.435 C 231.819 135.537,230.627 135.710,230.424 135.818 C 229.947 136.074,221.838 136.079,221.079 135.825 C 220.766 135.720,219.641 135.548,218.579 135.443 C 217.400 135.327,216.369 135.107,215.930 134.880 C 215.534 134.675,214.605 134.452,213.864 134.384 C 212.322 134.242,212.069 134.092,211.894 133.219 C 211.825 132.873,211.581 132.203,211.352 131.730 C 210.832 130.656,210.629 128.350,210.995 127.666 C 211.386 126.936,211.750 126.924,214.461 127.556 C 219.127 128.643,220.022 128.754,224.121 128.754 L 227.982 128.754 230.904 127.964 C 232.512 127.530,233.930 127.090,234.055 126.986 C 234.181 126.881,234.673 126.659,235.149 126.491 C 235.626 126.323,236.325 125.982,236.703 125.733 C 237.080 125.484,237.831 125.003,238.371 124.666 C 239.789 123.779,243.180 120.735,243.180 120.349 C 243.180 120.248,243.319 120.050,243.489 119.909 C 243.660 119.767,244.017 119.249,244.284 118.756 C 244.550 118.264,244.890 117.640,245.040 117.370 C 245.992 115.649,246.372 114.629,247.418 110.991 C 249.245 104.639,247.837 92.724,244.878 89.500 C 244.729 89.338,244.494 88.984,244.354 88.714 C 244.214 88.445,243.943 88.047,243.750 87.831 C 242.865 86.836,242.418 86.321,241.698 85.463 C 240.571 84.121,240.049 83.648,239.058 83.075 C 238.572 82.794,238.042 82.457,237.880 82.327 C 237.718 82.197,237.233 81.980,236.801 81.846 C 236.369 81.711,235.839 81.445,235.623 81.256 C 235.407 81.067,234.877 80.849,234.446 80.772 C 234.014 80.695,233.219 80.429,232.679 80.180 C 232.079 79.904,231.114 79.680,230.194 79.603 C 229.367 79.533,228.219 79.342,227.642 79.177 C 225.638 78.603,224.800 78.532,219.979 78.520 C 215.140 78.508,212.691 78.700,211.375 79.193 C 210.993 79.337,209.845 79.517,208.824 79.594 C 207.803 79.671,206.614 79.864,206.183 80.024 C 205.751 80.184,204.735 80.466,203.925 80.651 C 202.652 80.942,202.414 81.065,202.159 81.563 C 201.779 82.306,201.718 177.862,202.097 179.392 C 203.288 184.209,203.443 184.475,205.692 185.547 L 206.968 186.155 212.276 186.257 C 219.068 186.388,219.146 186.432,219.002 190.068 C 218.900 192.614,221.997 192.342,192.967 192.357 C 163.775 192.372,167.026 192.695,167.026 189.780 C 167.026 186.271,166.774 186.398,173.994 186.265 L 179.686 186.159 180.766 185.604 C 184.222 183.828,184.352 181.859,184.349 131.109 C 184.348 96.926,184.161 85.845,183.559 84.164 C 183.339 83.551,183.102 82.709,183.032 82.294 C 182.771 80.750,181.521 78.824,180.654 78.631 C 180.230 78.537,179.396 78.331,178.803 78.174 C 178.185 78.011,176.043 77.816,173.798 77.719 C 166.740 77.413,167.026 77.536,167.026 74.818 C 167.026 72.788,167.200 72.284,168.067 71.788 C 168.402 71.596,173.254 71.510,189.794 71.403 C 201.506 71.328,212.149 71.187,213.445 71.091 C 216.790 70.842,236.964 70.933,238.077 71.203 " stroke="none" fill="#fbfbfb" fill-rule="evenodd"></path><path id="path2" d="M38.846 7.657 C 38.352 7.740,37.601 7.984,37.178 8.198 C 36.755 8.413,36.125 8.649,35.780 8.724 C 35.434 8.798,34.946 9.020,34.696 9.217 C 34.446 9.413,33.862 9.688,33.397 9.827 C 31.633 10.356,28.832 14.366,28.059 17.468 C 27.938 17.954,27.705 18.559,27.542 18.813 C 27.379 19.067,27.166 19.818,27.068 20.481 C 26.783 22.416,26.840 190.185,27.126 190.530 C 27.382 190.838,33.428 190.828,33.906 190.518 C 34.101 190.392,34.151 173.450,34.151 106.891 C 34.151 49.502,34.215 23.059,34.357 22.260 C 35.040 18.410,35.981 15.151,36.777 13.883 C 36.928 13.642,37.154 13.120,37.280 12.724 C 37.405 12.328,37.637 11.897,37.794 11.766 C 37.952 11.635,38.252 11.142,38.460 10.671 C 38.669 10.199,38.927 9.814,39.034 9.814 C 39.140 9.814,39.288 9.623,39.362 9.390 C 39.436 9.158,39.717 8.763,39.987 8.512 C 40.277 8.243,40.431 7.935,40.363 7.758 C 40.238 7.433,40.186 7.430,38.846 7.657 " stroke="none" fill="#090909" fill-rule="evenodd"></path><path id="path3" d="M48.062 5.050 C 47.143 5.499,46.595 6.146,44.632 9.098 C 43.541 10.738,41.679 14.344,41.508 15.149 C 41.432 15.507,41.249 15.937,41.102 16.104 C 40.955 16.271,40.711 16.998,40.560 17.720 C 40.409 18.442,40.155 19.232,39.997 19.477 C 39.839 19.721,39.649 20.231,39.574 20.608 C 39.259 22.203,39.439 190.651,39.755 190.968 C 40.009 191.221,40.949 191.266,46.050 191.266 L 52.046 191.266 52.445 190.775 L 52.843 190.285 52.702 150.049 C 52.602 121.499,52.623 109.657,52.772 109.274 L 52.983 108.734 72.894 108.734 L 92.805 108.734 92.908 109.274 C 92.965 109.571,93.072 127.991,93.145 150.208 L 93.277 190.602 93.784 190.934 C 94.651 191.502,134.661 191.541,135.228 190.974 C 135.679 190.523,135.704 178.030,135.445 84.593 C 135.326 41.842,135.306 39.908,134.961 39.162 C 134.763 38.734,134.485 37.557,134.344 36.547 C 134.193 35.461,133.960 34.570,133.775 34.366 C 133.604 34.176,133.370 33.498,133.256 32.859 C 133.142 32.220,132.894 31.477,132.704 31.207 C 132.513 30.937,132.242 30.299,132.101 29.788 C 131.960 29.277,131.728 28.762,131.585 28.644 C 131.442 28.525,131.223 28.104,131.098 27.708 C 130.890 27.050,130.586 26.500,129.669 25.123 C 127.448 21.788,126.406 20.434,124.176 17.980 C 123.401 17.128,122.654 16.270,122.516 16.073 C 122.378 15.877,121.671 15.225,120.946 14.626 C 120.220 14.027,119.447 13.361,119.228 13.147 C 119.008 12.933,118.724 12.758,118.597 12.758 C 118.469 12.758,118.075 12.515,117.720 12.218 C 116.706 11.369,115.911 10.847,115.144 10.526 C 114.754 10.363,114.250 10.058,114.024 9.847 C 113.798 9.637,113.365 9.415,113.061 9.354 C 112.757 9.293,112.177 9.019,111.771 8.743 C 111.366 8.468,110.892 8.243,110.717 8.243 C 110.542 8.243,109.982 8.021,109.471 7.749 C 108.961 7.478,108.122 7.198,107.608 7.128 C 107.094 7.058,106.442 6.831,106.160 6.624 C 105.861 6.404,104.957 6.136,104.001 5.983 C 103.096 5.839,101.516 5.525,100.491 5.286 C 97.831 4.666,49.294 4.447,48.062 5.050 M96.467 6.042 C 100.862 6.343,103.126 6.653,104.713 7.171 C 105.528 7.437,106.392 7.655,106.633 7.655 C 106.874 7.655,107.424 7.844,107.854 8.076 C 108.284 8.308,109.064 8.611,109.588 8.750 C 110.112 8.890,110.686 9.133,110.864 9.292 C 111.042 9.451,111.541 9.678,111.973 9.796 C 112.404 9.914,113.122 10.253,113.568 10.550 C 114.413 11.112,116.376 12.375,117.456 13.052 C 121.123 15.350,127.873 23.393,130.469 28.557 C 130.794 29.205,131.203 30.000,131.378 30.324 C 131.553 30.648,131.696 31.045,131.697 31.207 C 131.698 31.369,131.873 31.787,132.086 32.135 C 132.298 32.484,132.642 33.412,132.850 34.196 C 133.058 34.981,133.366 35.976,133.534 36.408 C 133.702 36.840,133.848 37.547,133.859 37.978 C 133.869 38.410,134.021 39.470,134.196 40.334 C 134.664 42.644,135.274 189.956,134.818 190.505 C 134.567 190.808,95.129 190.917,94.656 190.616 C 94.469 190.497,94.403 185.979,94.362 170.354 C 94.320 154.707,94.254 150.150,94.063 149.817 C 93.871 149.481,93.817 144.983,93.817 129.159 C 93.817 109.146,93.813 108.926,93.422 108.535 C 92.817 107.930,52.505 108.012,51.833 108.620 L 51.418 108.996 51.518 129.523 C 51.574 140.812,51.664 159.126,51.720 170.220 L 51.821 190.390 51.315 190.583 C 50.746 190.799,41.595 190.814,40.824 190.600 L 40.334 190.463 40.187 108.235 C 40.107 63.009,40.035 25.199,40.028 24.213 C 40.019 22.976,40.114 22.184,40.334 21.661 C 40.509 21.244,40.786 20.196,40.950 19.333 C 41.114 18.469,41.365 17.630,41.508 17.468 C 41.651 17.306,41.898 16.732,42.058 16.192 C 42.739 13.887,46.207 8.124,47.873 6.528 L 48.752 5.685 71.236 5.770 C 83.602 5.816,94.956 5.938,96.467 6.042 M40.093 6.087 C 39.528 6.169,38.777 6.422,38.424 6.648 C 37.602 7.174,38.135 7.191,39.208 6.673 C 40.655 5.974,42.285 6.347,41.643 7.229 C 41.512 7.409,41.281 7.821,41.129 8.145 C 40.977 8.469,40.670 8.845,40.446 8.981 C 40.222 9.117,40.039 9.332,40.039 9.459 C 40.039 9.587,40.304 9.437,40.628 9.127 C 40.952 8.816,41.217 8.447,41.217 8.305 C 41.217 8.163,41.303 8.047,41.408 8.047 C 41.941 8.047,42.199 6.923,41.786 6.399 C 41.565 6.118,41.325 5.899,41.252 5.913 C 41.179 5.926,40.657 6.005,40.093 6.087 M35.623 7.655 C 35.008 7.978,34.387 8.243,34.244 8.243 C 34.102 8.243,33.735 8.453,33.430 8.709 C 33.125 8.965,32.582 9.238,32.224 9.316 C 31.608 9.450,29.833 10.978,29.833 11.374 C 29.833 11.471,29.626 11.800,29.372 12.105 C 29.119 12.410,28.854 12.924,28.785 13.248 L 28.658 13.837 29.000 13.225 C 29.188 12.888,29.535 12.264,29.770 11.838 C 30.337 10.810,31.601 9.689,32.463 9.451 C 32.846 9.346,33.404 9.087,33.704 8.875 C 34.004 8.664,34.470 8.426,34.740 8.347 C 35.010 8.267,35.450 8.064,35.717 7.895 C 35.985 7.725,36.559 7.475,36.993 7.339 C 37.651 7.133,37.696 7.090,37.262 7.079 C 36.976 7.072,36.239 7.331,35.623 7.655 M39.843 9.961 C 39.843 10.042,39.622 10.365,39.352 10.678 C 39.082 10.992,38.862 11.354,38.862 11.483 C 38.862 11.612,38.598 12.106,38.276 12.581 C 37.955 13.056,37.690 13.569,37.688 13.720 C 37.686 13.872,37.466 14.456,37.200 15.018 C 36.934 15.581,36.622 16.473,36.506 17.000 C 36.391 17.527,36.123 18.467,35.911 19.088 C 35.699 19.709,35.535 20.460,35.547 20.756 C 35.562 21.148,35.614 21.061,35.736 20.440 C 35.829 19.970,35.998 19.472,36.112 19.335 C 36.227 19.197,36.448 18.433,36.603 17.638 C 36.759 16.843,37.110 15.758,37.383 15.227 C 37.657 14.696,37.880 14.069,37.880 13.834 C 37.880 13.599,38.054 13.250,38.265 13.059 C 38.477 12.867,38.755 12.390,38.883 11.998 C 39.010 11.606,39.323 11.036,39.577 10.731 C 40.009 10.212,40.167 9.814,39.941 9.814 C 39.887 9.814,39.843 9.880,39.843 9.961 M28.111 14.597 C 27.871 14.948,27.675 15.362,27.676 15.518 C 27.677 15.673,27.907 15.418,28.186 14.952 C 28.790 13.944,28.736 13.686,28.111 14.597 M27.501 16.162 C 27.488 16.361,27.301 16.773,27.084 17.078 C 26.867 17.382,26.648 18.058,26.596 18.580 C 26.508 19.476,26.513 19.489,26.689 18.813 C 26.791 18.419,27.062 17.738,27.290 17.299 C 27.519 16.861,27.665 16.344,27.615 16.151 C 27.529 15.823,27.522 15.824,27.501 16.162 M21.455 18.380 C 20.560 18.813,17.095 22.955,16.770 23.980 C 16.708 24.177,16.570 24.338,16.464 24.338 C 16.357 24.338,16.134 24.669,15.967 25.074 C 15.800 25.478,15.508 25.986,15.318 26.202 C 15.127 26.418,14.874 26.886,14.755 27.241 C 14.636 27.597,14.372 28.127,14.169 28.419 C 13.965 28.711,13.696 29.253,13.570 29.624 C 13.444 29.995,13.220 30.437,13.072 30.606 C 12.923 30.774,12.701 31.392,12.578 31.978 C 12.455 32.563,12.180 33.325,11.967 33.670 C 11.754 34.014,11.528 34.727,11.465 35.254 C 11.402 35.781,11.191 36.609,10.996 37.095 C 10.070 39.400,10.104 36.150,10.172 115.702 C 10.235 189.555,10.241 190.486,10.619 190.873 C 11.188 191.456,21.179 191.482,22.063 190.903 L 22.618 190.539 22.475 107.782 C 22.332 24.773,22.355 20.738,22.973 19.111 C 23.241 18.407,22.317 17.962,21.455 18.380 M21.354 20.187 C 21.682 20.395,21.678 20.633,21.307 23.399 C 20.976 25.864,20.977 19.467,21.297 149.743 C 21.366 178.030,21.334 190.325,21.189 190.470 C 20.954 190.706,13.358 190.880,12.025 190.681 L 11.193 190.556 11.092 155.091 C 11.036 135.586,10.940 102.669,10.877 81.943 C 10.761 43.406,10.795 41.057,11.490 39.352 C 11.622 39.028,11.791 38.145,11.866 37.390 C 11.941 36.634,12.207 35.562,12.457 35.007 C 12.707 34.453,12.976 33.614,13.054 33.143 C 13.133 32.672,13.397 31.933,13.641 31.501 C 13.885 31.070,14.137 30.490,14.201 30.213 C 14.265 29.936,14.497 29.502,14.717 29.249 C 14.936 28.995,15.217 28.450,15.341 28.038 C 15.465 27.625,15.729 27.140,15.928 26.960 C 16.127 26.780,16.291 26.535,16.291 26.417 C 16.292 26.005,20.691 20.037,21.001 20.028 C 21.055 20.027,21.214 20.098,21.354 20.187 M26.327 20.333 C 26.312 20.559,26.164 21.018,25.997 21.352 C 25.725 21.898,25.695 30.600,25.702 106.122 L 25.710 190.285 26.303 190.824 L 26.895 191.364 30.510 191.364 C 34.011 191.364,35.045 191.226,35.371 190.714 C 35.452 190.586,35.498 152.458,35.473 105.986 L 35.428 21.492 35.329 106.079 L 35.231 190.666 34.740 190.914 C 33.952 191.312,27.015 191.266,26.609 190.859 C 26.329 190.580,26.300 182.868,26.296 108.965 C 26.292 47.680,26.234 27.184,26.063 26.595 C 25.709 25.374,25.770 22.624,26.173 21.608 C 26.361 21.132,26.479 20.558,26.435 20.332 L 26.354 19.921 26.327 20.333 M67.572 26.181 C 66.793 26.437,65.858 26.703,65.495 26.771 C 64.602 26.938,61.172 28.707,59.961 29.625 C 57.839 31.232,54.921 34.876,53.663 37.488 C 52.664 39.563,52.406 40.246,52.215 41.315 C 52.100 41.963,51.879 42.846,51.723 43.278 C 51.302 44.446,51.282 86.231,51.702 87.236 C 52.177 88.373,51.639 88.347,73.155 88.283 L 92.825 88.224 93.272 87.777 L 93.719 87.330 93.782 66.579 C 93.850 44.201,93.777 41.922,92.937 40.236 C 92.695 39.750,92.439 39.030,92.367 38.636 C 92.296 38.242,92.063 37.698,91.850 37.428 C 91.637 37.157,91.462 36.858,91.462 36.763 C 91.462 36.052,87.626 31.366,85.859 29.918 C 81.516 26.361,72.578 24.534,67.572 26.181 M77.545 27.164 C 80.611 27.662,84.808 30.009,86.929 32.412 C 87.344 32.883,88.013 33.621,88.416 34.053 C 89.133 34.823,90.873 37.308,90.873 37.563 C 90.873 37.634,91.084 38.022,91.342 38.424 C 91.600 38.827,91.868 39.544,91.938 40.019 C 92.008 40.493,92.260 41.155,92.500 41.491 L 92.934 42.100 92.988 64.309 C 93.037 84.428,93.013 86.547,92.729 86.831 C 92.180 87.380,53.091 87.302,52.797 86.751 C 52.650 86.477,52.603 79.634,52.643 64.033 L 52.699 41.708 53.224 40.709 C 53.512 40.160,53.812 39.365,53.890 38.943 C 53.968 38.520,54.239 37.925,54.494 37.620 C 54.748 37.315,55.012 36.843,55.080 36.571 C 55.214 36.036,55.222 36.026,57.522 33.569 C 58.378 32.655,59.078 31.846,59.078 31.771 C 59.078 31.225,63.247 28.727,65.915 27.675 C 67.838 26.916,74.273 26.633,77.545 27.164 M332.287 69.878 C 331.261 69.963,329.991 70.129,329.465 70.246 C 328.939 70.363,327.526 70.549,326.325 70.661 C 325.124 70.772,323.700 70.985,323.160 71.135 C 322.620 71.285,321.693 71.469,321.099 71.544 C 318.327 71.895,310.508 74.176,308.559 75.203 C 307.977 75.510,307.261 75.761,306.967 75.761 C 306.674 75.761,306.108 75.981,305.711 76.251 C 305.313 76.521,304.925 76.742,304.849 76.742 C 304.684 76.743,302.492 78.168,302.034 78.572 C 301.858 78.728,301.400 78.959,301.016 79.086 C 300.633 79.212,300.115 79.471,299.865 79.662 C 299.615 79.852,298.793 80.347,298.037 80.762 C 296.655 81.521,296.120 81.883,294.913 82.875 C 294.552 83.172,294.191 83.415,294.112 83.415 C 294.032 83.415,293.675 83.658,293.317 83.955 C 292.959 84.252,292.245 84.804,291.729 85.182 C 289.724 86.650,284.303 92.291,282.432 94.855 C 282.055 95.371,281.507 96.108,281.215 96.491 C 280.922 96.875,280.629 97.357,280.564 97.564 C 280.498 97.770,280.370 97.939,280.279 97.939 C 280.188 97.939,279.921 98.336,279.686 98.821 C 279.452 99.306,279.169 99.759,279.058 99.828 C 278.947 99.896,278.681 100.316,278.466 100.761 C 278.251 101.206,277.821 102.012,277.511 102.552 C 276.002 105.171,274.022 109.676,273.379 111.948 C 273.169 112.690,272.871 113.543,272.715 113.843 C 272.560 114.143,272.333 115.037,272.211 115.830 C 272.088 116.623,271.863 117.515,271.710 117.813 C 271.556 118.111,271.300 119.480,271.140 120.855 C 270.980 122.231,270.765 123.621,270.663 123.945 C 270.057 125.863,269.904 136.867,270.441 139.843 C 270.538 140.383,270.711 141.336,270.825 141.961 C 270.939 142.587,271.129 143.977,271.247 145.052 C 271.365 146.127,271.582 147.294,271.730 147.646 C 271.877 147.998,272.099 148.859,272.223 149.560 C 272.839 153.021,276.439 161.788,278.053 163.754 C 278.303 164.059,278.508 164.419,278.508 164.554 C 278.508 164.689,278.729 165.007,278.999 165.260 C 279.269 165.514,279.490 165.823,279.490 165.948 C 279.490 166.332,281.994 170.139,283.088 171.418 C 283.538 171.944,284.171 172.683,284.495 173.061 C 285.325 174.030,288.410 177.128,289.821 178.410 C 291.066 179.541,291.191 179.641,293.719 181.536 C 294.583 182.183,295.378 182.786,295.486 182.876 C 296.012 183.313,298.954 185.145,299.902 185.625 C 300.280 185.817,300.810 186.115,301.079 186.289 C 301.349 186.462,301.998 186.707,302.521 186.833 C 303.043 186.958,303.663 187.187,303.898 187.340 C 304.132 187.494,304.716 187.758,305.195 187.927 C 305.673 188.096,306.202 188.356,306.369 188.505 C 306.536 188.654,307.071 188.881,307.556 189.009 C 308.042 189.137,308.572 189.358,308.734 189.500 C 308.896 189.642,309.558 189.909,310.206 190.094 C 310.854 190.278,311.526 190.554,311.701 190.707 C 311.875 190.860,312.582 191.072,313.271 191.178 C 313.960 191.284,314.833 191.537,315.211 191.740 C 315.589 191.944,316.524 192.206,317.290 192.323 C 318.055 192.440,319.001 192.669,319.392 192.833 C 319.783 192.996,320.967 193.224,322.024 193.340 C 323.081 193.456,325.160 193.772,326.644 194.043 C 330.081 194.669,346.492 194.673,349.426 194.047 C 350.271 193.867,352.260 193.638,353.846 193.538 C 355.881 193.409,357.047 193.238,357.806 192.959 C 358.889 192.560,361.810 192.156,363.731 192.141 C 364.302 192.136,365.123 191.994,365.554 191.826 C 365.986 191.657,367.179 191.407,368.204 191.270 C 369.230 191.133,370.422 190.841,370.854 190.622 C 371.319 190.385,372.254 190.169,373.149 190.091 C 374.018 190.015,374.977 189.796,375.406 189.577 C 375.817 189.367,376.771 189.099,377.527 188.982 C 378.283 188.865,379.212 188.610,379.592 188.417 C 379.973 188.223,380.724 188.003,381.261 187.928 C 381.798 187.852,382.679 187.587,383.219 187.338 C 383.759 187.089,384.553 186.823,384.985 186.746 C 385.417 186.669,386.038 186.445,386.365 186.248 C 386.693 186.051,387.399 185.792,387.936 185.673 C 390.799 185.038,391.274 183.634,390.127 179.195 C 389.531 176.887,389.452 158.219,390.032 156.526 C 390.217 155.986,390.476 154.944,390.607 154.210 C 390.875 152.716,391.828 151.689,394.254 150.277 C 396.426 149.012,396.860 148.369,396.860 146.415 C 396.860 143.778,395.029 142.934,391.364 143.882 C 389.654 144.324,368.907 144.260,366.020 143.804 C 364.483 143.561,362.674 143.474,359.150 143.475 C 352.810 143.476,352.699 143.536,352.699 147.007 C 352.699 150.280,352.776 150.331,357.931 150.469 C 360.209 150.530,362.233 150.682,362.807 150.835 C 363.782 151.095,366.295 151.384,369.680 151.626 C 372.347 151.816,372.726 152.183,372.935 154.779 C 373.127 157.154,373.158 172.428,372.981 176.709 L 372.852 179.817 371.755 180.310 C 371.151 180.580,370.216 180.936,369.676 181.100 C 369.136 181.264,368.386 181.554,368.008 181.746 C 367.630 181.937,366.810 182.199,366.185 182.328 C 365.560 182.457,364.811 182.686,364.520 182.837 C 364.229 182.988,363.503 183.208,362.908 183.326 C 362.313 183.444,361.472 183.663,361.040 183.812 C 360.608 183.961,358.754 184.358,356.919 184.695 C 355.083 185.032,353.008 185.450,352.306 185.624 C 350.061 186.182,336.937 186.221,334.272 185.677 C 333.151 185.449,331.517 185.136,330.641 184.983 C 328.286 184.570,322.537 182.700,319.823 181.464 C 318.051 180.657,317.870 180.566,316.943 180.025 C 316.438 179.731,315.671 179.292,315.239 179.051 C 314.806 178.810,314.396 178.521,314.328 178.410 C 314.259 178.299,313.834 178.021,313.382 177.792 C 312.931 177.563,312.517 177.313,312.463 177.236 C 312.409 177.158,312.156 176.985,311.900 176.850 C 311.645 176.715,310.907 176.194,310.262 175.692 C 309.616 175.190,308.899 174.647,308.667 174.485 C 307.531 173.690,301.342 166.916,300.240 165.260 C 300.061 164.990,299.649 164.416,299.326 163.984 C 299.003 163.553,298.558 162.890,298.337 162.512 C 298.116 162.134,297.583 161.264,297.152 160.579 C 296.721 159.893,296.369 159.274,296.369 159.202 C 296.369 159.129,296.156 158.757,295.895 158.374 C 295.635 157.990,295.325 157.318,295.207 156.879 C 295.089 156.440,294.865 155.975,294.708 155.845 C 294.552 155.716,294.280 155.109,294.103 154.498 C 293.927 153.886,293.661 153.250,293.513 153.084 C 293.365 152.918,293.114 152.228,292.956 151.551 C 292.798 150.873,292.529 150.106,292.359 149.845 C 292.188 149.585,291.953 148.689,291.837 147.854 C 291.721 147.019,291.512 146.112,291.372 145.837 C 291.044 145.196,290.922 144.580,290.672 142.304 C 290.560 141.282,290.336 139.993,290.175 139.439 C 289.327 136.522,289.323 121.931,290.170 119.038 C 290.328 118.499,290.590 117.024,290.751 115.762 C 290.913 114.500,291.178 113.263,291.340 113.014 C 291.502 112.765,291.738 111.943,291.865 111.187 C 291.992 110.432,292.249 109.549,292.436 109.225 C 292.623 108.901,292.884 108.128,293.016 107.507 C 293.149 106.887,293.328 106.379,293.415 106.379 C 293.594 106.379,293.933 105.592,294.135 104.711 C 294.209 104.387,294.477 103.872,294.731 103.567 C 294.984 103.262,295.191 102.854,295.191 102.662 C 295.191 102.469,295.456 101.978,295.780 101.570 C 296.104 101.163,296.369 100.745,296.369 100.642 C 296.369 100.539,296.549 100.220,296.770 99.933 C 297.480 99.009,298.528 97.365,298.528 97.175 C 298.528 97.074,298.596 96.961,298.679 96.925 C 298.762 96.889,299.005 96.629,299.219 96.348 C 300.717 94.374,301.381 93.566,302.431 92.444 C 303.087 91.742,303.626 91.104,303.628 91.026 C 303.631 90.873,305.045 89.487,305.934 88.764 C 306.233 88.521,306.786 88.070,307.164 87.761 C 307.542 87.452,308.116 87.051,308.440 86.870 C 308.763 86.689,309.426 86.284,309.912 85.971 C 310.397 85.657,311.610 84.948,312.605 84.397 C 313.601 83.845,314.468 83.310,314.531 83.208 C 314.594 83.106,314.804 83.023,314.999 83.023 C 315.193 83.023,315.666 82.810,316.050 82.549 C 316.433 82.289,317.235 81.975,317.832 81.851 C 318.428 81.727,319.121 81.464,319.372 81.267 C 319.623 81.070,320.433 80.815,321.174 80.699 C 321.914 80.584,322.675 80.349,322.865 80.177 C 323.090 79.973,323.889 79.793,325.148 79.661 C 326.313 79.539,327.424 79.298,327.935 79.057 C 330.145 78.011,352.838 78.020,355.948 79.068 C 356.601 79.288,358.001 79.556,359.061 79.665 C 360.213 79.782,361.116 79.976,361.308 80.147 C 361.696 80.491,362.978 80.861,363.792 80.862 C 364.117 80.863,364.709 81.084,365.106 81.354 C 365.503 81.624,365.927 81.845,366.049 81.845 C 366.170 81.845,366.639 82.059,367.090 82.321 C 367.541 82.583,368.247 82.859,368.660 82.934 C 369.072 83.010,369.867 83.292,370.426 83.562 C 370.985 83.832,372.149 84.339,373.013 84.690 C 373.876 85.041,375.113 85.614,375.761 85.963 C 376.408 86.312,377.203 86.736,377.527 86.905 C 380.130 88.260,380.760 90.568,380.764 98.762 C 380.766 104.102,380.756 104.082,383.358 104.189 C 386.963 104.337,387.175 104.077,387.434 99.168 C 387.554 96.875,387.726 95.383,387.934 94.808 C 388.113 94.311,388.355 92.571,388.493 90.784 C 388.659 88.631,388.838 87.442,389.059 87.024 C 389.244 86.675,389.482 85.456,389.613 84.178 C 389.739 82.949,389.912 81.855,389.997 81.747 C 390.285 81.381,390.794 79.072,390.671 78.686 C 390.490 78.116,388.221 77.171,386.276 76.856 C 385.350 76.705,384.019 76.389,383.317 76.153 C 380.959 75.360,379.637 74.956,376.808 74.169 C 373.516 73.252,368.096 71.937,366.830 71.746 C 366.344 71.673,365.373 71.451,364.671 71.252 C 363.970 71.053,362.159 70.646,360.648 70.347 L 357.900 69.804 346.026 69.763 C 339.495 69.741,333.312 69.792,332.287 69.878 M213.445 71.091 C 212.149 71.187,201.506 71.328,189.794 71.403 C 173.254 71.510,168.402 71.596,168.067 71.788 C 167.200 72.284,167.026 72.788,167.026 74.818 C 167.026 77.536,166.740 77.413,173.798 77.719 C 176.043 77.816,178.185 78.011,178.803 78.174 C 179.396 78.331,180.230 78.537,180.654 78.631 C 181.521 78.824,182.771 80.750,183.032 82.294 C 183.102 82.709,183.339 83.551,183.559 84.164 C 184.161 85.845,184.348 96.926,184.349 131.109 C 184.352 181.859,184.222 183.828,180.766 185.604 L 179.686 186.159 173.994 186.265 C 166.774 186.398,167.026 186.271,167.026 189.780 C 167.026 192.695,163.775 192.372,192.967 192.357 C 221.997 192.342,218.900 192.614,219.002 190.068 C 219.146 186.432,219.068 186.388,212.276 186.257 L 206.968 186.155 205.692 185.547 C 203.443 184.475,203.288 184.209,202.097 179.392 C 201.718 177.862,201.779 82.306,202.159 81.563 C 202.414 81.065,202.652 80.942,203.925 80.651 C 204.735 80.466,205.751 80.184,206.183 80.024 C 206.614 79.864,207.803 79.671,208.824 79.594 C 209.845 79.517,210.993 79.337,211.375 79.193 C 212.691 78.700,215.140 78.508,219.979 78.520 C 224.800 78.532,225.638 78.603,227.642 79.177 C 228.219 79.342,229.367 79.533,230.194 79.603 C 231.114 79.680,232.079 79.904,232.679 80.180 C 233.219 80.429,234.014 80.695,234.446 80.772 C 234.877 80.849,235.407 81.067,235.623 81.256 C 235.839 81.445,236.369 81.711,236.801 81.846 C 237.233 81.980,237.718 82.197,237.880 82.327 C 238.042 82.457,238.572 82.794,239.058 83.075 C 240.049 83.648,240.571 84.121,241.698 85.463 C 242.418 86.321,242.865 86.836,243.750 87.831 C 243.943 88.047,244.214 88.445,244.354 88.714 C 244.494 88.984,244.729 89.338,244.878 89.500 C 247.837 92.724,249.245 104.639,247.418 110.991 C 246.372 114.629,245.992 115.649,245.040 117.370 C 244.890 117.640,244.550 118.264,244.284 118.756 C 244.017 119.249,243.660 119.767,243.489 119.909 C 243.319 120.050,243.180 120.248,243.180 120.349 C 243.180 120.735,239.789 123.779,238.371 124.666 C 237.831 125.003,237.080 125.484,236.703 125.733 C 236.325 125.982,235.626 126.323,235.149 126.491 C 234.673 126.659,234.181 126.881,234.055 126.986 C 233.930 127.090,232.512 127.530,230.904 127.964 L 227.982 128.754 224.121 128.754 C 220.022 128.754,219.127 128.643,214.461 127.556 C 211.750 126.924,211.386 126.936,210.995 127.666 C 210.629 128.350,210.832 130.656,211.352 131.730 C 211.581 132.203,211.825 132.873,211.894 133.219 C 212.069 134.092,212.322 134.242,213.864 134.384 C 214.605 134.452,215.534 134.675,215.930 134.880 C 216.369 135.107,217.400 135.327,218.579 135.443 C 219.641 135.548,220.766 135.720,221.079 135.825 C 221.838 136.079,229.947 136.074,230.424 135.818 C 230.627 135.710,231.819 135.537,233.072 135.435 C 234.739 135.299,235.519 135.147,235.977 134.867 C 236.322 134.656,237.204 134.393,237.936 134.281 C 238.668 134.169,239.551 133.906,239.899 133.696 C 240.246 133.487,240.883 133.254,241.315 133.179 C 241.747 133.104,242.309 132.908,242.563 132.744 C 243.581 132.088,245.564 131.134,246.169 131.009 C 246.522 130.936,247.120 130.684,247.498 130.449 C 247.875 130.214,248.427 129.898,248.724 129.747 C 249.021 129.596,249.264 129.399,249.264 129.309 C 249.264 129.220,249.390 129.146,249.543 129.146 C 249.697 129.146,250.205 128.858,250.672 128.506 C 251.139 128.155,251.742 127.725,252.012 127.552 C 253.518 126.587,259.643 120.460,260.622 118.940 C 260.796 118.670,261.300 117.964,261.743 117.370 C 262.967 115.727,264.858 111.985,265.073 110.778 C 265.148 110.355,265.375 109.736,265.576 109.401 C 265.778 109.067,266.040 108.096,266.158 107.244 C 266.277 106.393,266.502 105.389,266.659 105.014 C 267.449 103.122,267.529 94.598,266.770 93.101 C 266.559 92.686,266.324 91.860,266.247 91.266 C 266.170 90.672,265.907 89.745,265.661 89.205 C 265.415 88.665,265.157 87.983,265.087 87.689 C 265.018 87.395,264.741 86.831,264.473 86.435 C 264.204 86.039,263.984 85.627,263.984 85.520 C 263.984 84.990,262.044 82.490,260.429 80.938 C 259.431 79.979,258.156 78.739,257.595 78.181 C 257.034 77.624,256.233 76.995,255.815 76.785 C 255.396 76.574,254.612 76.157,254.073 75.857 C 250.004 73.598,246.315 72.400,241.413 71.744 C 240.064 71.564,238.562 71.320,238.077 71.203 C 236.964 70.933,216.790 70.842,213.445 71.091 M358.255 71.217 C 359.638 71.340,360.937 71.531,361.143 71.641 C 361.349 71.751,362.205 71.967,363.045 72.120 C 363.885 72.273,365.633 72.629,366.928 72.910 C 368.224 73.192,370.255 73.625,371.443 73.873 C 372.630 74.121,373.867 74.460,374.190 74.627 C 374.514 74.793,375.265 74.992,375.859 75.069 C 376.452 75.146,377.556 75.416,378.312 75.669 C 379.068 75.922,380.192 76.219,380.810 76.330 C 381.428 76.440,382.135 76.662,382.380 76.822 C 382.626 76.982,383.445 77.209,384.200 77.327 C 384.956 77.444,386.082 77.714,386.703 77.926 C 387.325 78.139,387.996 78.312,388.195 78.312 C 388.395 78.312,388.821 78.404,389.144 78.516 L 389.729 78.721 389.492 79.743 C 389.361 80.305,389.158 81.428,389.041 82.237 C 388.924 83.047,388.695 84.181,388.532 84.757 C 388.370 85.334,388.146 86.835,388.034 88.094 C 387.922 89.353,387.696 90.824,387.531 91.364 C 387.366 91.904,387.102 94.112,386.943 96.271 C 386.468 102.729,386.323 103.042,383.800 103.042 C 381.669 103.042,381.808 103.469,381.701 96.565 C 381.573 88.295,381.350 87.798,376.621 85.231 C 375.388 84.562,373.861 83.836,373.227 83.617 C 372.593 83.399,371.970 83.135,371.843 83.029 C 371.716 82.924,371.088 82.662,370.448 82.448 C 367.532 81.473,366.488 81.079,365.849 80.714 C 365.471 80.497,364.800 80.267,364.359 80.202 C 363.917 80.137,363.166 79.916,362.690 79.711 C 362.215 79.506,361.262 79.278,360.574 79.205 C 359.886 79.132,358.879 78.897,358.337 78.683 C 357.760 78.456,356.445 78.214,355.172 78.100 C 353.974 77.993,352.242 77.759,351.325 77.579 C 348.922 77.109,334.362 76.974,333.409 77.413 C 333.062 77.573,331.387 77.839,329.689 78.004 C 327.990 78.169,326.282 78.437,325.894 78.600 C 325.506 78.762,324.379 79.032,323.389 79.201 C 322.399 79.369,321.148 79.674,320.608 79.878 C 320.069 80.082,319.185 80.395,318.646 80.573 C 316.067 81.425,315.286 81.720,315.015 81.946 C 314.853 82.081,314.500 82.256,314.230 82.334 C 312.426 82.861,306.583 86.756,304.512 88.813 C 299.886 93.405,296.659 97.666,294.774 101.668 C 294.545 102.154,294.245 102.684,294.106 102.846 C 293.967 103.008,293.749 103.535,293.621 104.017 C 293.492 104.499,293.225 105.099,293.027 105.351 C 292.829 105.602,292.607 106.091,292.534 106.437 C 292.461 106.783,292.236 107.338,292.034 107.672 C 291.831 108.005,291.546 108.844,291.400 109.536 C 291.254 110.229,290.993 111.068,290.819 111.401 C 290.645 111.735,290.401 112.618,290.277 113.364 C 290.152 114.110,289.882 115.294,289.678 115.996 C 288.315 120.673,288.281 137.801,289.627 142.591 C 289.778 143.131,290.040 144.323,290.207 145.240 C 290.375 146.158,290.670 147.267,290.861 147.704 C 291.053 148.142,291.273 148.937,291.351 149.471 C 291.428 150.005,291.706 150.900,291.968 151.460 C 292.229 152.020,292.444 152.601,292.444 152.751 C 292.444 152.902,292.664 153.459,292.934 153.990 C 293.203 154.521,293.561 155.369,293.729 155.873 C 293.898 156.377,294.154 156.888,294.298 157.009 C 294.443 157.129,294.617 157.524,294.685 157.887 C 294.753 158.250,294.969 158.755,295.163 159.009 C 295.358 159.262,295.780 160.000,296.100 160.648 C 298.573 165.653,306.013 174.006,310.960 177.331 C 311.281 177.547,311.876 177.944,312.282 178.214 C 312.688 178.484,313.661 179.141,314.444 179.674 C 317.960 182.070,324.346 184.732,328.850 185.680 C 329.823 185.885,330.951 186.148,331.357 186.265 C 335.185 187.366,351.576 187.228,355.643 186.060 C 356.344 185.859,357.699 185.596,358.653 185.477 C 359.607 185.358,360.825 185.088,361.359 184.878 C 361.893 184.667,362.482 184.495,362.667 184.496 C 363.146 184.497,366.539 183.427,369.185 182.439 C 370.427 181.976,371.777 181.491,372.186 181.360 C 373.827 180.836,373.908 180.172,374.021 166.396 C 374.115 154.932,373.936 152.651,372.860 151.575 C 372.190 150.905,369.152 150.364,364.769 150.134 C 357.721 149.765,354.647 149.392,354.028 148.831 C 353.410 148.272,353.527 145.350,354.184 144.919 C 354.741 144.554,368.681 144.656,371.639 145.046 C 373.562 145.300,387.767 145.287,389.799 145.030 C 394.651 144.415,395.684 144.654,395.679 146.393 C 395.675 148.124,395.570 148.304,393.941 149.359 C 393.117 149.892,392.355 150.398,392.247 150.483 C 392.139 150.568,391.668 150.887,391.200 151.192 C 389.961 151.998,389.480 153.214,389.192 156.265 C 389.066 157.596,388.875 159.436,388.767 160.353 C 388.504 162.580,388.503 170.925,388.766 173.503 C 388.881 174.637,389.071 176.995,389.189 178.743 C 389.307 180.491,389.484 182.135,389.583 182.396 C 389.990 183.466,389.085 184.247,386.359 185.177 C 385.496 185.472,384.701 185.782,384.593 185.868 C 384.485 185.953,383.844 186.163,383.169 186.334 C 382.493 186.506,381.743 186.774,381.500 186.930 C 381.258 187.086,380.490 187.316,379.792 187.440 C 379.095 187.565,378.270 187.799,377.959 187.959 C 377.648 188.120,376.673 188.386,375.792 188.549 C 374.911 188.712,373.977 188.982,373.717 189.149 C 373.457 189.316,372.554 189.529,371.711 189.624 C 370.868 189.718,369.753 189.963,369.233 190.168 C 368.654 190.396,367.071 190.665,365.154 190.861 C 363.431 191.037,361.580 191.306,361.040 191.459 C 360.500 191.612,359.352 191.796,358.489 191.869 C 357.625 191.941,356.565 192.115,356.133 192.256 C 352.049 193.591,326.693 193.726,322.669 192.434 C 322.184 192.278,321.045 192.058,320.140 191.944 C 319.235 191.831,317.999 191.571,317.393 191.368 C 316.786 191.165,315.761 190.897,315.113 190.773 C 314.465 190.649,313.405 190.344,312.758 190.095 C 312.110 189.847,311.249 189.585,310.844 189.513 C 310.439 189.442,310.108 189.310,310.108 189.220 C 310.108 189.030,309.373 188.723,308.217 188.428 C 307.771 188.314,307.300 188.094,307.171 187.938 C 307.042 187.782,306.612 187.550,306.216 187.421 C 305.820 187.293,305.275 187.034,305.005 186.845 C 304.735 186.656,304.205 186.413,303.827 186.305 C 301.346 185.593,294.774 181.450,291.658 178.633 C 290.849 177.901,289.928 177.133,289.612 176.928 C 288.575 176.252,283.479 170.534,282.187 168.597 C 282.007 168.327,281.461 167.532,280.974 166.830 C 280.488 166.129,280.087 165.481,280.084 165.390 C 280.081 165.300,279.798 164.814,279.455 164.311 C 278.264 162.561,278.170 162.404,278.025 161.920 C 277.945 161.652,277.671 161.071,277.418 160.629 C 277.164 160.187,276.829 159.480,276.672 159.059 C 276.358 158.215,275.485 156.074,275.079 155.152 C 273.813 152.276,271.969 144.302,271.608 140.137 C 271.091 134.172,271.171 128.839,271.869 122.767 C 272.087 120.867,273.423 115.038,273.902 113.890 C 274.063 113.505,274.331 112.664,274.498 112.021 C 274.664 111.378,274.973 110.531,275.182 110.139 C 275.392 109.747,275.564 109.288,275.564 109.119 C 275.564 108.769,275.998 107.832,277.987 103.888 C 280.198 99.505,280.326 99.273,281.175 98.133 C 281.617 97.541,282.094 96.835,282.237 96.565 C 283.558 94.064,291.923 85.907,295.780 83.360 C 296.374 82.968,297.094 82.467,297.381 82.246 C 297.668 82.025,297.980 81.845,298.074 81.845 C 298.168 81.845,298.952 81.375,299.815 80.800 C 300.679 80.225,301.674 79.654,302.027 79.531 C 302.380 79.408,303.188 78.912,303.823 78.429 C 304.851 77.647,307.592 76.349,308.214 76.349 C 308.344 76.349,308.977 76.087,309.622 75.767 C 310.267 75.446,311.001 75.181,311.253 75.178 C 311.504 75.175,312.343 74.957,313.117 74.694 C 316.711 73.475,325.119 71.768,329.146 71.441 C 330.604 71.322,332.414 71.152,333.170 71.063 C 335.168 70.828,355.280 70.951,358.255 71.217 M236.408 72.232 C 237.164 72.335,238.710 72.517,239.843 72.637 C 240.976 72.757,242.655 73.026,243.572 73.236 C 244.490 73.445,245.815 73.745,246.516 73.902 C 248.003 74.234,250.050 74.973,251.717 75.780 C 252.365 76.093,253.036 76.349,253.208 76.349 C 253.380 76.349,253.682 76.527,253.878 76.744 C 254.074 76.960,254.581 77.241,255.003 77.368 C 255.973 77.659,260.759 82.387,262.074 84.353 C 263.122 85.920,264.573 88.607,264.573 88.980 C 264.573 89.126,264.798 89.668,265.073 90.184 C 265.393 90.787,265.643 91.696,265.770 92.716 C 265.878 93.592,266.095 94.807,266.251 95.416 C 266.579 96.693,266.631 100.262,266.337 101.277 C 266.227 101.654,265.997 103.111,265.825 104.514 C 265.641 106.014,265.366 107.353,265.157 107.762 C 264.962 108.145,264.740 108.807,264.664 109.234 C 264.587 109.661,264.369 110.319,264.179 110.697 C 263.988 111.075,263.546 112.002,263.197 112.758 C 262.331 114.629,259.730 118.679,258.701 119.756 C 258.530 119.936,257.905 120.637,257.311 121.315 C 256.049 122.758,254.887 123.907,253.857 124.730 C 253.453 125.054,252.850 125.551,252.518 125.835 C 250.789 127.313,245.450 130.519,244.713 130.521 C 244.571 130.521,244.146 130.713,243.768 130.946 C 242.357 131.820,240.887 132.495,239.745 132.795 C 239.097 132.965,238.430 133.228,238.263 133.378 C 238.095 133.528,237.329 133.740,236.559 133.849 C 235.790 133.958,234.691 134.247,234.116 134.490 C 232.482 135.183,219.061 135.182,217.615 134.490 C 216.997 134.193,216.056 133.984,214.824 133.867 C 212.543 133.651,212.637 133.712,212.469 132.338 C 212.394 131.716,212.163 130.820,211.956 130.348 C 210.961 128.074,211.511 127.904,215.996 129.101 C 217.850 129.595,218.254 129.628,223.278 129.693 L 228.597 129.763 231.183 129.062 C 236.270 127.684,240.707 124.782,244.256 120.510 C 249.985 113.617,251.136 98.765,246.595 90.331 C 245.418 88.144,244.847 87.433,241.119 83.517 C 239.484 81.800,234.708 79.553,231.732 79.102 C 230.909 78.978,229.977 78.746,229.661 78.589 C 227.896 77.709,212.798 77.701,209.421 78.578 C 208.395 78.845,206.800 79.154,205.875 79.265 C 204.950 79.376,203.935 79.604,203.618 79.772 C 203.301 79.940,202.723 80.200,202.333 80.351 C 201.398 80.712,201.403 80.680,201.251 87.341 C 201.157 91.460,201.053 93.074,200.856 93.464 C 200.513 94.144,200.469 167.126,200.811 168.597 C 200.924 169.082,201.091 171.555,201.183 174.092 C 201.630 186.482,202.303 187.261,212.659 187.388 C 218.036 187.454,217.863 187.378,217.858 189.668 C 217.856 190.439,217.785 191.180,217.699 191.314 C 217.577 191.508,212.360 191.563,192.923 191.576 L 168.302 191.593 168.245 189.884 C 168.159 187.303,167.862 187.440,173.583 187.434 C 182.251 187.425,184.092 186.205,184.534 180.177 C 185.276 170.069,185.432 161.559,185.431 131.207 C 185.430 92.872,185.175 84.109,183.991 81.821 C 183.817 81.483,183.549 80.788,183.397 80.277 C 183.013 78.982,182.464 78.359,181.491 78.114 C 181.038 78.000,180.270 77.711,179.784 77.471 C 178.959 77.065,178.563 77.030,173.765 76.938 C 167.877 76.826,168.322 76.989,168.235 74.908 C 168.129 72.369,165.547 72.649,190.096 72.538 C 201.750 72.485,212.390 72.366,213.739 72.274 C 217.187 72.038,234.749 72.005,236.408 72.232 " stroke="none" fill="#97e2f5" fill-rule="evenodd"></path><path id="path4" d="M39.206 6.664 C 38.801 6.866,38.115 7.091,37.680 7.165 C 37.245 7.238,36.510 7.500,36.047 7.746 C 35.584 7.993,34.989 8.261,34.727 8.343 C 34.464 8.424,34.004 8.664,33.704 8.875 C 33.404 9.087,32.846 9.346,32.463 9.451 C 31.622 9.684,30.336 10.807,29.817 11.763 C 29.608 12.148,29.356 12.596,29.257 12.758 C 28.784 13.535,27.674 15.962,27.674 16.220 C 27.674 16.380,27.459 16.969,27.197 17.529 C 26.935 18.089,26.626 19.236,26.511 20.077 C 26.396 20.918,26.163 21.875,25.992 22.205 C 25.643 22.880,25.685 25.220,26.071 26.595 C 26.232 27.169,26.292 49.240,26.296 108.965 C 26.300 182.868,26.329 190.580,26.609 190.859 C 27.015 191.266,33.952 191.312,34.740 190.914 L 35.231 190.666 35.329 105.490 L 35.427 20.314 35.862 19.136 C 36.101 18.489,36.391 17.527,36.506 17.000 C 36.622 16.473,36.934 15.581,37.200 15.018 C 37.466 14.456,37.684 13.867,37.684 13.709 C 37.684 13.552,37.903 13.126,38.170 12.764 C 38.437 12.402,38.753 11.811,38.872 11.450 C 38.991 11.090,39.162 10.795,39.252 10.795 C 39.342 10.795,39.611 10.390,39.851 9.896 C 40.090 9.401,40.410 8.949,40.562 8.891 C 40.715 8.832,40.966 8.508,41.122 8.171 C 41.278 7.833,41.512 7.409,41.643 7.229 C 42.277 6.358,40.597 5.969,39.206 6.664 M40.363 7.758 C 40.431 7.935,40.277 8.243,39.987 8.512 C 39.717 8.763,39.436 9.158,39.362 9.390 C 39.288 9.623,39.140 9.814,39.034 9.814 C 38.927 9.814,38.669 10.199,38.460 10.671 C 38.252 11.142,37.952 11.635,37.794 11.766 C 37.637 11.897,37.405 12.328,37.280 12.724 C 37.154 13.120,36.928 13.642,36.777 13.883 C 35.981 15.151,35.040 18.410,34.357 22.260 C 34.215 23.059,34.151 49.502,34.151 106.891 C 34.151 173.450,34.101 190.392,33.906 190.518 C 33.428 190.828,27.382 190.838,27.126 190.530 C 26.840 190.185,26.783 22.416,27.068 20.481 C 27.166 19.818,27.379 19.067,27.542 18.813 C 27.705 18.559,27.938 17.954,28.059 17.468 C 28.832 14.366,31.633 10.356,33.397 9.827 C 33.862 9.688,34.446 9.413,34.696 9.217 C 34.946 9.020,35.434 8.798,35.780 8.724 C 36.125 8.649,36.755 8.413,37.178 8.198 C 37.829 7.868,38.986 7.574,39.996 7.481 C 40.135 7.469,40.300 7.593,40.363 7.758 " stroke="none" fill="#8c8c8c" fill-rule="evenodd"></path></g></svg>